<?xml version="1.0" encoding="UTF-8"?>
<svg width="140px" height="45px" viewBox="0 0 140 45" version="1.1" xmlns="http://www.w3.org/2000/svg" xmlns:xlink="http://www.w3.org/1999/xlink">
    <!-- Generator: Sketch 53.2 (72643) - https://sketchapp.com -->
    <title>EDUVIK NAME</title>
    <desc>Created with Sketch.</desc>
    <g id="Symbols" stroke="none" stroke-width="1" fill="none" fill-rule="evenodd">
        <g id="navigatie-copy" transform="translate(-100.000000, -36.000000)">
            <g id="EDUVIK-NAME" transform="translate(100.000000, 35.114697)">
                <g id="Group" transform="translate(0.000000, 9.885303)" fill="#2B2B2B">
                    <g transform="translate(0.019522, 0.017686)" id="Rectangle">
                        <rect x="0.0339499505" y="0.0152421283" width="3.4852224" height="34.9340343"></rect>
                    </g>
                    <g transform="translate(0.017689, 31.458291)" id="Rectangle">
                        <rect x="0.0359843536" y="0.0149411106" width="20.9113242" height="3.49340079"></rect>
                    </g>
                    <g transform="translate(0.017689, 0.017791)" id="Rectangle">
                        <rect x="0.0359843536" y="0.0149411106" width="20.9113242" height="3.49340079"></rect>
                    </g>
                    <g transform="translate(0.017689, 15.737869)" id="Rectangle">
                        <rect x="0.0359843536" y="0.0149411106" width="20.9113242" height="3.49340079"></rect>
                    </g>
                </g>
                <g id="Group" transform="translate(24.000000, 9.885303)" fill="#2B2B2B">
                    <path d="M0.0108007519,34.9669718 L0.0108007519,3.38415493 L0.0108007519,0.0325352113 L8.66943609,0.0325352113 L8.66943609,3.38415493 L3.47432331,3.38415493 L3.47432331,31.6153521 L8.66943609,31.6153521 C16.3927068,31.6153521 22.6634962,25.2902113 22.6634962,17.5 C22.6634962,9.70929577 16.3927068,3.38415493 8.66943609,3.38415493 L8.66943609,0.0325352113 C18.2268797,0.0325352113 25.9863158,7.85922535 25.9863158,17.5 C25.9863158,27.1402817 18.2268797,34.9669718 8.66943609,34.9669718 L0.0108007519,34.9669718 Z" id="Path"></path>
                </g>
                <g id="Group" transform="translate(53.000000, 9.885303)" fill="#2B2B2B">
                    <path d="M3.53977099,22.0874648 C3.53977099,27.2728873 7.77667939,31.4822535 12.9955344,31.4822535 C18.2148855,31.4822535 22.4517939,27.2723944 22.4517939,22.0874648 L25.959313,22.0874648 C25.959313,29.1959155 20.1504962,34.9669718 12.9955344,34.9669718 C5.8410687,34.9669718 0.0322519084,29.1959155 0.0322519084,22.0874648 L3.53977099,22.0874648 Z M0.0322519084,0.0325352113 L3.54870229,0.0325352113 L3.54870229,22.0874648 L0.0322519084,22.0874648 L0.0322519084,0.0325352113 Z M22.4428626,0.0325352113 L25.959313,0.0325352113 L25.959313,22.0874648 L22.4428626,22.0874648 L22.4428626,0.0325352113 Z" id="Shape"></path>
                </g>
                <g id="Group" transform="translate(110.000000, 9.885303)" fill="#2B2B2B">
                    <path d="M3.93333333,8.16136973 L3.93333333,34.9565517 L0.0725925926,34.9565517 L0.0725925926,15.0888889 L3.93333333,8.16136973 Z M3.93333333,5.59302682 L0.0725925926,10.9144349 L0.0725925926,0.0105938697 L3.93333333,0.0105938697 L3.93333333,5.59302682 Z" id="Shape"></path>
                </g>
                <g id="Group" transform="translate(119.000000, 7.885303)" fill="#2B2B2B">
                    <g transform="translate(0.011482, 1.574973)" id="Rectangle">
                        <rect x="0" y="0" width="3.50160489" height="34.8372059"></rect>
                    </g>
                    <g transform="translate(11.732423, 10.865998) rotate(40.000008) translate(-11.732423, -10.865998) translate(9.732423, -1.634002)" id="Rectangle">
                        <rect x="-1.58202056e-08" y="3.50462415e-08" width="3.50160515" height="24.7613113"></rect>
                    </g>
                    <g transform="translate(11.679907, 27.823421) rotate(139.999992) translate(-11.679907, -27.823421) translate(9.679907, 14.823421)" id="Rectangle">
                        <rect x="0.00681429709" y="1.00425959" width="3.50160515" height="24.7613113"></rect>
                    </g>
                </g>
                <g id="Group" transform="translate(82.000000, 0.885303)" fill="#70D497">
                    <polygon id="Path" points="0.0275732708 20.46 12.9003517 44 42 0.00293333333 12.6541618 30.36"></polygon>
                </g>
            </g>
        </g>
    </g>
</svg>