<?xml version="1.0" encoding="UTF-8" standalone="no"?>
<svg
   xmlns:dc="http://purl.org/dc/elements/1.1/"
   xmlns:cc="http://creativecommons.org/ns#"
   xmlns:rdf="http://www.w3.org/1999/02/22-rdf-syntax-ns#"
   xmlns:svg="http://www.w3.org/2000/svg"
   xmlns="http://www.w3.org/2000/svg"
   xmlns:xlink="http://www.w3.org/1999/xlink"
   xmlns:sodipodi="http://sodipodi.sourceforge.net/DTD/sodipodi-0.dtd"
   xmlns:inkscape="http://www.inkscape.org/namespaces/inkscape"
   width="256"
   height="256"
   viewBox="0 0 67.733332 67.733335"
   version="1.1"
   id="svg1525"
   inkscape:version="1.0.2-2 (e86c870879, 2021-01-15)"
   sodipodi:docname="Solutio care logo - color gradient.svg">
  <defs
     id="defs1519">
    <linearGradient
       inkscape:collect="always"
       id="linearGradient2869">
      <stop
         style="stop-color:#2bc384;stop-opacity:1"
         offset="0"
         id="stop2865" />
      <stop
         style="stop-color:#2cadcd;stop-opacity:1"
         offset="1"
         id="stop2867" />
    </linearGradient>
    <linearGradient
       inkscape:collect="always"
       xlink:href="#linearGradient2869"
       id="linearGradient2871"
       x1="4.7643685"
       y1="67.676262"
       x2="63.369869"
       y2="0.45797774"
       gradientUnits="userSpaceOnUse" />
  </defs>
  <sodipodi:namedview
     id="base"
     pagecolor="#ffffff"
     bordercolor="#666666"
     borderopacity="1.0"
     inkscape:pageopacity="0.0"
     inkscape:pageshadow="2"
     inkscape:zoom="1.979899"
     inkscape:cx="124.89592"
     inkscape:cy="166.5696"
     inkscape:document-units="mm"
     inkscape:current-layer="layer1"
     inkscape:document-rotation="0"
     showgrid="false"
     units="px"
     inkscape:window-width="2400"
     inkscape:window-height="1261"
     inkscape:window-x="2391"
     inkscape:window-y="-9"
     inkscape:window-maximized="1" />
  <metadata
     id="metadata1522">
    <rdf:RDF>
      <cc:Work
         rdf:about="">
        <dc:format>image/svg+xml</dc:format>
        <dc:type
           rdf:resource="http://purl.org/dc/dcmitype/StillImage" />
        <dc:title></dc:title>
      </cc:Work>
    </rdf:RDF>
  </metadata>
  <g
     inkscape:label="Layer 1"
     inkscape:groupmode="layer"
     id="layer1">
    <g
       id="g2863"
       style="fill-opacity:1;fill:url(#linearGradient2871)">
      <path
         id="path1415-8-3-2"
         style="color:#000000;font-style:normal;font-variant:normal;font-weight:normal;font-stretch:normal;font-size:medium;line-height:normal;font-family:sans-serif;font-variant-ligatures:normal;font-variant-position:normal;font-variant-caps:normal;font-variant-numeric:normal;font-variant-alternates:normal;font-variant-east-asian:normal;font-feature-settings:normal;font-variation-settings:normal;text-indent:0;text-align:start;text-decoration:none;text-decoration-line:none;text-decoration-style:solid;text-decoration-color:#000000;letter-spacing:normal;word-spacing:normal;text-transform:none;writing-mode:lr-tb;direction:ltr;text-orientation:mixed;dominant-baseline:auto;baseline-shift:baseline;text-anchor:start;white-space:normal;shape-padding:0;shape-margin:0;inline-size:0;clip-rule:nonzero;display:inline;overflow:visible;visibility:visible;opacity:1;isolation:auto;mix-blend-mode:normal;color-interpolation:sRGB;color-interpolation-filters:linearRGB;solid-color:#000000;solid-opacity:1;vector-effect:none;fill:url(#linearGradient2871);fill-opacity:1;fill-rule:nonzero;stroke:none;stroke-width:0.504258;stroke-linecap:round;stroke-linejoin:bevel;stroke-miterlimit:4;stroke-dasharray:none;stroke-dashoffset:0;stroke-opacity:1;color-rendering:auto;image-rendering:auto;shape-rendering:auto;text-rendering:auto;enable-background:accumulate;stop-color:#000000;stop-opacity:1"
         d="M 33.252328,2.2499999e-7 4.8439424,16.401976 4.2298293,17.466047 v 32.802144 l 0.6145653,1.06407 28.4074804,16.401072 h 1.228678 L 62.888486,51.332712 63.503504,50.268191 63.503053,17.465142 62.888486,16.401524 34.481007,2.2499999e-7 Z M 33.866441,2.4831336 46.610871,9.8411858 H 21.121558 Z m 14.434824,8.3339404 12.743979,7.3576 V 32.890326 Z M 19.430712,10.817526 6.6871862,32.890777 V 18.174674 Z m 2.03001,1.561512 24.811889,4.52e-4 12.406171,21.487629 -12.405719,21.487629 H 21.460722 L 9.0545518,33.866667 Z M 6.6867341,34.843911 19.431164,56.916711 6.6867341,49.558658 Z m 54.3589619,9.05e-4 v 14.713842 l -12.744431,7.358504 z m -39.923686,23.048236 25.487956,4.51e-4 -12.743525,7.357602 z" />
      <path
         style="font-variation-settings:normal;vector-effect:none;fill:url(#linearGradient2871);fill-opacity:1;stroke-width:0.0583788;stroke-linecap:butt;stroke-linejoin:miter;stroke-miterlimit:4;stroke-dasharray:none;stroke-dashoffset:0;stroke-opacity:1;stop-color:#000000"
         d="m 25.536404,50.131886 c 0.351831,-0.185184 0.360611,-0.411374 0.05303,-1.366629 -0.483506,-1.501734 -1.250453,-2.560521 -3.599032,-4.968517 -1.199146,-1.229479 -1.291459,-1.338816 -1.727217,-2.045583 -0.655415,-1.063061 -1.092045,-2.44675 -1.297551,-4.111997 -0.149512,-1.211531 -0.112005,-2.613513 0.162362,-6.068422 0.493086,-6.208953 0.453246,-5.819581 0.618108,-6.041027 0.189107,-0.254008 0.511727,-0.382234 0.685669,-0.272517 0.06844,0.04318 0.194144,0.171813 0.279338,0.285869 0.150311,0.201235 0.156081,0.325209 0.194977,4.187355 0.02205,2.188989 0.04754,3.986051 0.05666,3.993472 0.0091,0.0074 0.07002,0.06692 0.135313,0.132218 0.16881,0.168809 0.604635,0.150899 0.787911,-0.03239 0.146374,-0.146375 0.151106,-0.251843 0.151106,-3.368117 v -3.21701 l 0.245551,0.05288 c 0.135046,0.02908 0.339042,0.100657 0.453318,0.15905 0.202819,0.103643 0.207739,0.121864 0.206612,0.765321 -4.89e-4,0.362532 -0.06811,1.492122 -0.149951,2.5102 -0.195239,2.428777 -0.194505,2.676512 0.0085,2.879523 0.1252,0.125197 0.217741,0.150179 0.429195,0.115864 0.148273,-0.02406 0.312191,-0.08739 0.364253,-0.140723 0.119802,-0.122727 0.226326,-0.954594 0.331689,-2.590228 0.04548,-0.706421 0.09581,-1.323854 0.111778,-1.372073 0.04903,-0.148001 0.635922,0.04379 0.772678,0.252503 0.14849,0.226627 0.111777,1.040727 -0.135368,3.001322 l -0.170526,1.352879 0.205856,0.177072 c 0.228958,0.196944 0.399579,0.219422 0.68352,0.09005 0.236005,-0.107535 0.229069,-0.08342 0.420431,-1.461819 0.205995,-1.483852 0.27323,-2.92127 0.156587,-3.347507 -0.163678,-0.598078 -0.815455,-1.134997 -1.535316,-1.264756 l -0.283325,-0.05107 -0.0017,-0.388245 c -0.0022,-0.478557 -0.195055,-0.919911 -0.563341,-1.288197 -0.316389,-0.316388 -0.503303,-0.407468 -1.096059,-0.534085 -0.41289,-0.0882 -0.414639,-0.08977 -0.470778,-0.422766 -0.03099,-0.183831 -0.151011,-0.5201 -0.266704,-0.747264 -0.616174,-1.209841 -2.367382,-1.185946 -3.087076,0.04212 -0.19746,0.336945 -0.205479,0.407557 -0.572221,5.04061 -0.328151,4.145538 -0.367968,4.881269 -0.338058,6.247716 0.04398,2.00782 0.267509,3.215588 0.891175,4.814223 0.515865,1.322314 1.049517,2.047377 2.93496,3.987711 2.052342,2.112097 2.277119,2.425792 2.896314,4.042098 0.151234,0.394768 0.328546,0.794253 0.394037,0.887749 0.13113,0.187224 0.401155,0.221067 0.663222,0.08312 z m 6.549263,-0.06424 c 0.183838,-0.183836 0.192045,-0.476351 0.03432,-1.222797 -0.06424,-0.303984 -0.320344,-1.708176 -0.569133,-3.120425 -0.539327,-3.061519 -0.618856,-3.420275 -0.868378,-3.917061 -0.40717,-0.810648 -0.882685,-1.321525 -2.367733,-2.54381 -0.892791,-0.734822 -1.207004,-1.060521 -2.735295,-2.835353 -1.347737,-1.565134 -1.642685,-1.866283 -1.98864,-2.030453 -0.920064,-0.436597 -2.216427,-0.06117 -2.619065,0.758479 -0.137955,0.280834 -0.179594,0.487245 -0.176668,0.875679 0.0044,0.60621 0.04648,0.69382 1.605361,3.35683 1.656634,2.829999 1.768689,2.998525 2.046922,3.078322 0.195488,0.05606 0.280382,0.04036 0.445577,-0.08242 0.424379,-0.315426 0.339291,-0.533573 -1.2312,-3.156689 -1.210825,-2.022385 -1.801404,-3.176171 -1.743622,-3.406412 0.07395,-0.294645 0.46764,-0.501865 0.874443,-0.460268 0.402755,0.04118 0.480141,0.117473 2.27683,2.244626 1.275504,1.510118 1.491562,1.727386 2.756404,2.771942 1.026082,0.847374 1.584674,1.446718 1.813993,1.946324 0.211898,0.461651 0.290428,0.829352 0.782475,3.663619 0.598143,3.44548 0.731195,4.012783 0.974453,4.154916 0.205006,0.119783 0.52947,0.08444 0.688956,-0.07505 z m 4.248538,0.04687 c 0.15978,-0.121329 0.420303,-1.177089 0.738687,-2.993471 0.726086,-4.142217 0.768108,-4.348669 0.976557,-4.797621 0.270719,-0.583081 0.677834,-1.035887 1.581521,-1.759017 1.084464,-0.86779 2.037714,-1.814711 3.058926,-3.038605 0.502748,-0.602536 1.154031,-1.342012 1.447297,-1.643281 0.465307,-0.47801 0.567533,-0.54776 0.802783,-0.54776 0.390626,0 0.776854,0.281416 0.806687,0.587776 0.02821,0.289729 -0.259085,0.844806 -1.631489,3.152103 -1.25328,2.107017 -1.619666,2.823194 -1.557286,3.044039 0.0517,0.183025 0.383391,0.395253 0.611438,0.391227 0.282853,-0.0049 0.244735,0.05284 2.707129,-4.108546 0.82995,-1.402613 1.013482,-1.837654 1.01582,-2.407935 0.0028,-0.726289 -0.306905,-1.249077 -0.942616,-1.590201 -0.403732,-0.216645 -1.458048,-0.232537 -1.835079,-0.02766 -0.340053,0.184783 -1.111165,0.975271 -2.085896,2.138306 -1.076279,1.284209 -1.86851,2.100238 -2.714476,2.796032 -1.398088,1.149898 -2.101434,1.934401 -2.421866,2.701298 -0.138928,0.332499 -0.261062,0.948711 -0.915432,4.618751 -0.266726,1.495955 -0.507196,2.828157 -0.534374,2.960451 -0.09297,0.452543 0.515187,0.81001 0.891669,0.524114 z m 6.423164,0.0098 c 0.06773,-0.05194 0.297736,-0.536427 0.511123,-1.076633 0.621233,-1.572746 0.803866,-1.827051 2.787147,-3.880978 0.747627,-0.774254 1.547156,-1.645155 1.776725,-1.935329 1.654119,-2.090778 2.387891,-5.266911 2.08614,-9.029878 -0.03832,-0.477874 -0.190313,-2.432811 -0.337754,-4.344304 -0.385545,-4.99831 -0.335804,-4.723093 -0.954111,-5.279007 -0.603296,-0.542413 -1.384877,-0.63772 -2.069413,-0.252348 -0.404165,0.227535 -0.694526,0.668113 -0.844538,1.281493 -0.119375,0.488104 -0.134419,0.509983 -0.350654,0.509983 -0.397368,0 -0.80968,0.169462 -1.157724,0.475819 -0.427389,0.3762 -0.640493,0.791427 -0.690772,1.345931 -0.03926,0.432781 -0.04082,0.435191 -0.317201,0.481882 -0.463736,0.07835 -1.046207,0.461511 -1.292897,0.850501 -0.214691,0.338537 -0.222527,0.383036 -0.222527,1.26361 0,1.455697 0.307537,3.671767 0.54211,3.906338 0.346089,0.346087 1.014598,-6.11e-4 0.935985,-0.485436 -0.180033,-1.110264 -0.348849,-2.855532 -0.329923,-3.410913 0.0211,-0.61841 0.03798,-0.682703 0.211781,-0.804774 0.103886,-0.07297 0.279405,-0.152912 0.390055,-0.177652 0.185203,-0.04141 0.204595,-0.02251 0.244429,0.238127 0.02382,0.155708 0.07912,0.878086 0.122951,1.605284 0.104841,1.73973 0.19766,2.203069 0.459693,2.294819 0.272741,0.0955 0.570987,0.0048 0.716934,-0.21789 0.113649,-0.173445 0.110867,-0.347602 -0.03771,-2.359834 -0.278543,-3.773527 -0.268325,-3.441188 -0.110172,-3.581683 0.121757,-0.108162 0.624493,-0.28917 0.806593,-0.290411 0.03399,-2.26e-4 0.0532,1.423934 0.0427,3.164811 -0.01727,2.876978 -0.0073,3.183163 0.10995,3.362114 0.102997,0.157191 0.189224,0.196881 0.427734,0.196881 0.241269,0 0.324491,-0.03931 0.432687,-0.20432 0.122606,-0.187004 0.137156,-0.537578 0.171731,-4.136534 l 0.03776,-3.932212 0.210848,-0.275601 c 0.199576,-0.260859 0.223266,-0.270962 0.4431,-0.188882 0.127743,0.04769 0.307843,0.156488 0.400234,0.241762 0.19646,0.181341 0.149706,-0.229341 0.580694,5.101155 0.486205,6.013594 0.437075,7.312001 -0.365736,9.66554 -0.480907,1.409819 -0.941405,2.050559 -2.973106,4.136771 -1.447641,1.486476 -2.05709,2.255742 -2.522448,3.183915 -0.374149,0.746248 -0.747494,1.819503 -0.747494,2.148811 0,0.400181 0.55079,0.657687 0.874987,0.409072 z M 34.503368,37.20122 v -7.275496 l 0.532137,-0.09125 c 1.66236,-0.285063 3.2892,-1.403816 4.177055,-2.872494 0.620751,-1.026836 0.878369,-1.994474 0.880418,-3.306946 0.0044,-2.870731 -1.908655,-5.28943 -4.751602,-6.007192 -0.53985,-0.136296 -0.783846,-0.154847 -1.624386,-0.123505 -0.558615,0.02082 -1.186424,0.09045 -1.442437,0.159953 -0.65145,0.176857 -1.740262,0.733518 -2.263963,1.15745 -2.101861,1.701447 -2.881404,4.666517 -1.885854,7.173037 0.477631,1.202541 1.509883,2.411876 2.604276,3.051037 0.55224,0.322523 1.63099,0.710822 2.206625,0.794281 l 0.358878,0.05203 v 0.985112 0.985112 L 32.860084,31.470207 C 32.142267,30.789217 31.60235,30.479062 30.574602,30.157307 30.253531,30.056792 29.77524,30.01869 28.47082,29.98972 l -1.68825,-0.0375 0.02943,1.765756 c 0.02832,1.696937 0.03765,1.789286 0.239415,2.369456 0.38996,1.12128 1.084858,2.027715 2.048727,2.672391 0.962269,0.643602 1.964327,0.917107 3.360077,0.917107 h 0.834271 v 3.39989 3.399892 h 0.604429 0.604424 z m -2.984351,-0.730586 c -0.922962,-0.106548 -1.849018,-0.592345 -2.509936,-1.31668 -0.758734,-0.83153 -1.078833,-1.779048 -1.078833,-3.193362 v -0.856776 l 0.81219,0.0013 c 0.44671,7.22e-4 1.036562,0.04887 1.310785,0.107 1.887586,0.400115 3.241292,2.06798 3.241292,3.993501 v 0.467829 l -1.623292,-1.621975 -1.623293,-1.621976 -0.378864,0.373169 c -0.208377,0.205242 -0.378864,0.408155 -0.378864,0.450917 0,0.04277 0.722182,0.800515 1.604844,1.683896 1.793746,1.795206 1.739501,1.661919 0.623971,1.533142 z m 1.473286,-7.817171 c -1.843537,-0.39073 -3.202658,-1.560308 -3.839668,-3.304179 -0.183499,-0.502353 -0.202425,-0.653027 -0.202425,-1.611896 0,-0.913916 0.02432,-1.129657 0.179167,-1.586615 0.255309,-0.753631 0.567039,-1.269418 1.124104,-1.859934 0.61121,-0.647915 1.267441,-1.064652 2.133299,-1.354741 0.566578,-0.18982 0.79759,-0.227029 1.415709,-0.228022 0.82734,-0.0013 1.324684,0.07664 1.876668,0.294212 2.570862,1.01334 3.874938,3.849052 2.946433,6.407046 -0.386145,1.063814 -1.212452,2.065331 -2.159699,2.617627 -1.029658,0.600351 -2.416662,0.850514 -3.473588,0.626502 z m 2.088322,-1.459521 c -0.02055,-0.07272 -0.05932,-0.285213 -0.08616,-0.472206 -0.08448,-0.588322 -0.08542,-0.589509 -0.47501,-0.594801 -0.639404,-0.0087 -1.286494,-0.313034 -1.563083,-0.73517 -0.14874,-0.226998 -0.101348,-0.225992 0.528904,0.01123 0.281032,0.10578 0.562452,0.182278 0.625371,0.169994 0.09445,-0.01844 0.512189,-1.028258 0.448842,-1.084995 -0.0216,-0.01933 -2.026297,-0.712836 -2.060583,-0.712836 -0.04265,0 0.130703,-0.563548 0.236622,-0.769366 l 0.104324,-0.202716 0.998599,0.334934 c 0.549235,0.184214 1.022401,0.334935 1.051483,0.334935 0.05571,0 0.368963,-0.871383 0.368963,-1.026354 0,-0.0497 -0.271991,-0.187017 -0.604429,-0.305134 -0.332433,-0.118117 -0.604419,-0.239301 -0.604419,-0.269296 0,-0.09269 0.52284,-0.158303 0.875888,-0.109911 0.39624,0.05431 0.745295,0.218762 1.030386,0.48545 l 0.206333,0.193015 0.408831,-0.371635 c 0.224854,-0.204397 0.412495,-0.411656 0.416976,-0.460574 0.01177,-0.129156 -0.497533,-0.529434 -0.943459,-0.741401 -1.001959,-0.476275 -2.208191,-0.385103 -3.192979,0.241339 l -0.404709,0.257445 -0.458377,-0.154797 c -0.25211,-0.08514 -0.469623,-0.143552 -0.483367,-0.129807 -0.01372,0.01374 -0.108307,0.269928 -0.210127,0.569295 l -0.185126,0.544305 0.190379,0.07238 c 0.104708,0.03981 0.222161,0.07238 0.261012,0.07238 0.09773,0 0.08082,0.127257 -0.07531,0.566648 -0.136646,0.384562 -0.182194,0.411144 -0.569622,0.332458 -0.122106,-0.0248 -0.1791,0.05135 -0.316606,0.423073 -0.244968,0.662199 -0.240909,0.674385 0.276972,0.831187 0.429961,0.13018 0.457989,0.153431 0.536535,0.445127 0.195505,0.726054 0.713835,1.454694 1.346903,1.893414 0.442345,0.306542 1.088213,0.485867 1.766757,0.490534 0.52741,0.0036 0.586631,-0.01009 0.553283,-0.128155 z"
         id="path852"
         sodipodi:nodetypes="cssssssssssssscsscsssssssscsssssccsssssssssssccsssssssssssssssssssssssssssssssssssssssssssssssssssssssssssssssssssssssssscsssssssssccsscssssssscccssscssssccccccsssccsscccsssssssscsssssssssssssssscssssssscscsscssscssssssssss" />
    </g>
  </g>
</svg>
