<?xml version="1.0" encoding="UTF-8" standalone="no"?>
<svg
   xmlns:dc="http://purl.org/dc/elements/1.1/"
   xmlns:cc="http://creativecommons.org/ns#"
   xmlns:rdf="http://www.w3.org/1999/02/22-rdf-syntax-ns#"
   xmlns:svg="http://www.w3.org/2000/svg"
   xmlns="http://www.w3.org/2000/svg"
   xmlns:xlink="http://www.w3.org/1999/xlink"
   xmlns:sodipodi="http://sodipodi.sourceforge.net/DTD/sodipodi-0.dtd"
   xmlns:inkscape="http://www.inkscape.org/namespaces/inkscape"
   width="700"
   height="100"
   viewBox="0 0 185.20833 26.458335"
   version="1.1"
   id="svg2157"
   inkscape:version="1.0.2-2 (e86c870879, 2021-01-15)"
   sodipodi:docname="Solutio care logo text - color gradient.svg">
  <defs
     id="defs2151">
    <linearGradient
       inkscape:collect="always"
       id="linearGradient894">
      <stop
         style="stop-color:#2bc384;stop-opacity:1"
         offset="0"
         id="stop890" />
      <stop
         style="stop-color:#2cadcd;stop-opacity:1"
         offset="1"
         id="stop892" />
    </linearGradient>
    <linearGradient
       inkscape:collect="always"
       xlink:href="#linearGradient894"
       id="linearGradient896"
       x1="0.39522299"
       y1="22.241812"
       x2="105.36217"
       y2="3.9338496"
       gradientUnits="userSpaceOnUse" />
    <linearGradient
       inkscape:collect="always"
       xlink:href="#linearGradient894"
       id="linearGradient905"
       gradientUnits="userSpaceOnUse"
       x1="0.39522299"
       y1="22.241812"
       x2="105.36217"
       y2="3.9338496" />
    <linearGradient
       inkscape:collect="always"
       xlink:href="#linearGradient894"
       id="linearGradient907"
       gradientUnits="userSpaceOnUse"
       x1="0.39522299"
       y1="22.241812"
       x2="105.36217"
       y2="3.9338496" />
    <linearGradient
       inkscape:collect="always"
       xlink:href="#linearGradient894"
       id="linearGradient909"
       gradientUnits="userSpaceOnUse"
       x1="0.39522299"
       y1="22.241812"
       x2="105.36217"
       y2="3.9338496" />
    <linearGradient
       inkscape:collect="always"
       xlink:href="#linearGradient894"
       id="linearGradient911"
       gradientUnits="userSpaceOnUse"
       x1="0.39522299"
       y1="22.241812"
       x2="105.36217"
       y2="3.9338496" />
    <linearGradient
       inkscape:collect="always"
       xlink:href="#linearGradient894"
       id="linearGradient913"
       gradientUnits="userSpaceOnUse"
       x1="0.39522299"
       y1="22.241812"
       x2="105.36217"
       y2="3.9338496" />
  </defs>
  <sodipodi:namedview
     id="base"
     pagecolor="#ffffff"
     bordercolor="#666666"
     borderopacity="1.0"
     inkscape:pageopacity="0.0"
     inkscape:pageshadow="2"
     inkscape:zoom="1.4"
     inkscape:cx="317.6014"
     inkscape:cy="-18.567282"
     inkscape:document-units="mm"
     inkscape:current-layer="g65"
     inkscape:document-rotation="0"
     showgrid="false"
     units="px"
     inkscape:window-width="1920"
     inkscape:window-height="1009"
     inkscape:window-x="1912"
     inkscape:window-y="-8"
     inkscape:window-maximized="1" />
  <metadata
     id="metadata2154">
    <rdf:RDF>
      <cc:Work
         rdf:about="">
        <dc:format>image/svg+xml</dc:format>
        <dc:type
           rdf:resource="http://purl.org/dc/dcmitype/StillImage" />
        <dc:title></dc:title>
      </cc:Work>
    </rdf:RDF>
  </metadata>
  <g
     inkscape:label="Layer 1"
     inkscape:groupmode="layer"
     id="layer1">
    <g
       id="g65"
       style="fill:url(#linearGradient896);fill-opacity:1">
      <g
         id="g903"
         style="fill:url(#linearGradient913)"
         transform="translate(9.1898944,0.34178769)">
        <g
           id="g58"
           transform="translate(41.63905,-4.0842049)"
           style="fill:url(#linearGradient909);fill-opacity:1">
          <path
             id="path1415-8-3-2"
             style="color:#000000;font-style:normal;font-variant:normal;font-weight:normal;font-stretch:normal;font-size:medium;line-height:normal;font-family:sans-serif;font-variant-ligatures:normal;font-variant-position:normal;font-variant-caps:normal;font-variant-numeric:normal;font-variant-alternates:normal;font-variant-east-asian:normal;font-feature-settings:normal;font-variation-settings:normal;text-indent:0;text-align:start;text-decoration:none;text-decoration-line:none;text-decoration-style:solid;text-decoration-color:#000000;letter-spacing:normal;word-spacing:normal;text-transform:none;writing-mode:lr-tb;direction:ltr;text-orientation:mixed;dominant-baseline:auto;baseline-shift:baseline;text-anchor:start;white-space:normal;shape-padding:0;shape-margin:0;inline-size:0;clip-rule:nonzero;display:inline;overflow:visible;visibility:visible;isolation:auto;mix-blend-mode:normal;color-interpolation:sRGB;color-interpolation-filters:linearRGB;solid-color:#000000;solid-opacity:1;vector-effect:none;fill:url(#linearGradient905);fill-opacity:1;fill-rule:nonzero;stroke:none;stroke-width:0.140133;stroke-linecap:round;stroke-linejoin:bevel;stroke-miterlimit:4;stroke-dasharray:none;stroke-dashoffset:0;stroke-opacity:1;color-rendering:auto;image-rendering:auto;shape-rendering:auto;text-rendering:auto;enable-background:accumulate;stop-color:#000000"
             d="m -33.17851,7.5601099 -7.894655,4.5580891 -0.170662,0.295704 v 9.115675 l 0.170787,0.295704 7.894404,4.557838 h 0.341448 l 7.89453,-4.557713 0.170913,-0.295829 -1.26e-4,-9.115927 -0.170787,-0.295578 -7.894404,-4.5579631 z m 0.170661,0.6900597 3.541662,2.0447934 h -7.083449 z m 4.01142,2.3159914 3.541536,2.044668 v 4.089462 z m -8.023091,1.26e-4 -3.54141,6.134129 v -4.089587 z m 0.564137,0.433942 6.895194,1.26e-4 3.447659,5.971386 -3.447534,5.971385 h -6.895319 l -3.447659,-5.971511 z m -4.105673,6.242961 3.541662,6.134004 -3.541662,-2.044794 z m 15.106289,2.51e-4 V 21.3324 l -3.541662,2.044919 z m -11.094743,6.405077 7.083071,1.25e-4 -3.54141,2.044669 z" />
          <path
             style="font-variation-settings:normal;vector-effect:none;fill:url(#linearGradient907);fill-opacity:1;stroke-width:0.0162234;stroke-linecap:butt;stroke-linejoin:miter;stroke-miterlimit:4;stroke-dasharray:none;stroke-dashoffset:0;stroke-opacity:1;stop-color:#000000"
             d="m -35.322756,21.491699 c 0.09777,-0.05146 0.100214,-0.11432 0.01474,-0.379784 -0.134365,-0.41733 -0.347499,-0.711566 -1.000166,-1.380745 -0.333242,-0.341671 -0.358895,-0.372055 -0.479992,-0.568465 -0.182139,-0.295423 -0.303478,-0.679949 -0.360588,-1.142719 -0.04155,-0.336683 -0.03113,-0.726292 0.04512,-1.686407 0.137028,-1.72546 0.125956,-1.617254 0.171771,-1.678794 0.05255,-0.07059 0.142208,-0.106222 0.190547,-0.07573 0.01902,0.012 0.05395,0.04775 0.07763,0.07944 0.04177,0.05592 0.04338,0.09037 0.05418,1.16366 0.0061,0.608318 0.01321,1.107719 0.01575,1.109781 0.0025,0.0021 0.01946,0.0186 0.0376,0.03674 0.04691,0.04691 0.168028,0.04193 0.21896,-0.009 0.04068,-0.04068 0.04199,-0.06999 0.04199,-0.935995 v -0.894003 l 0.06824,0.01469 c 0.03753,0.0081 0.09422,0.02797 0.125977,0.0442 0.05636,0.0288 0.05773,0.03387 0.05742,0.212682 -1.36e-4,0.100747 -0.01893,0.414658 -0.04167,0.697581 -0.05426,0.674954 -0.05405,0.743799 0.0024,0.800216 0.03479,0.03479 0.06051,0.04173 0.119273,0.0322 0.0412,-0.0067 0.08676,-0.02429 0.101225,-0.03911 0.03329,-0.03411 0.0629,-0.265281 0.09218,-0.719821 0.01264,-0.196314 0.02663,-0.367898 0.03106,-0.381298 0.01362,-0.04113 0.176722,0.01217 0.214726,0.07017 0.04127,0.06298 0.03106,0.289217 -0.03762,0.834064 l -0.04739,0.375963 0.05721,0.04921 c 0.06363,0.05473 0.111042,0.06098 0.189949,0.02502 0.06559,-0.02988 0.06366,-0.02318 0.116837,-0.406237 0.05725,-0.412361 0.07593,-0.811818 0.04352,-0.930268 -0.04549,-0.166206 -0.226614,-0.315415 -0.426663,-0.351475 l -0.07874,-0.01419 -4.73e-4,-0.107893 c -6.11e-4,-0.13299 -0.05421,-0.255642 -0.156551,-0.357988 -0.08792,-0.08792 -0.139868,-0.113235 -0.304594,-0.148422 -0.114742,-0.02451 -0.115228,-0.02495 -0.130829,-0.117486 -0.0086,-0.05109 -0.04196,-0.144535 -0.07412,-0.207663 -0.171234,-0.336214 -0.657893,-0.329573 -0.857895,0.01171 -0.05487,0.09364 -0.0571,0.113259 -0.159019,1.400779 -0.09119,1.15204 -0.102258,1.356499 -0.09395,1.736233 0.01222,0.55797 0.07434,0.893607 0.247656,1.337866 0.143358,0.36747 0.29166,0.568964 0.815622,1.10818 0.570343,0.586949 0.632808,0.674125 0.804882,1.123294 0.04203,0.109706 0.0913,0.220722 0.109502,0.246705 0.03644,0.05203 0.111481,0.06143 0.184309,0.0231 z m 1.820032,-0.01785 c 0.05109,-0.05109 0.05337,-0.132377 0.0095,-0.339814 -0.01785,-0.08448 -0.08902,-0.4747 -0.158161,-0.867162 -0.149879,-0.850792 -0.17198,-0.95049 -0.241322,-1.088546 -0.113152,-0.225279 -0.245297,-0.367251 -0.65799,-0.706922 -0.248105,-0.204206 -0.335425,-0.294718 -0.760135,-0.787941 -0.374534,-0.434949 -0.4565,-0.518638 -0.55264,-0.564261 -0.255685,-0.121329 -0.615943,-0.017 -0.727835,0.210781 -0.03834,0.07804 -0.04991,0.135405 -0.0491,0.24335 0.0012,0.168465 0.01292,0.192812 0.446128,0.932859 0.460376,0.786453 0.491516,0.833286 0.568837,0.855462 0.05433,0.01558 0.07792,0.01122 0.123825,-0.02291 0.117934,-0.08766 0.09429,-0.148279 -0.342149,-0.87724 -0.336487,-0.562018 -0.500608,-0.882654 -0.48455,-0.946637 0.02055,-0.08188 0.129956,-0.139468 0.243006,-0.127908 0.111925,0.01144 0.133431,0.03264 0.632729,0.623778 0.354461,0.41966 0.414503,0.480039 0.766001,0.77032 0.285147,0.235484 0.440379,0.402041 0.504106,0.540881 0.05889,0.128292 0.08071,0.230476 0.217449,1.018115 0.166223,0.957495 0.203198,1.115147 0.270799,1.154646 0.05697,0.03329 0.147139,0.02347 0.19146,-0.02086 z m 1.180664,0.01303 c 0.0444,-0.03372 0.116802,-0.327111 0.20528,-0.831882 0.201778,-1.151117 0.213456,-1.20849 0.271384,-1.333253 0.07523,-0.162037 0.188369,-0.287871 0.439503,-0.488828 0.301371,-0.241158 0.566278,-0.504306 0.850072,-0.844425 0.139713,-0.167444 0.320703,-0.372943 0.402202,-0.456666 0.129308,-0.132838 0.157716,-0.152222 0.223092,-0.152222 0.108555,0 0.215887,0.07821 0.224177,0.163343 0.0078,0.08051 -0.072,0.23477 -0.453388,0.875965 -0.348285,0.585538 -0.450104,0.784562 -0.432768,0.845935 0.01437,0.05086 0.106544,0.10984 0.169918,0.108721 0.0786,-0.0014 0.06801,0.01469 0.752307,-1.141759 0.230643,-0.389785 0.281646,-0.510682 0.282296,-0.669163 7.78e-4,-0.201834 -0.08529,-0.347117 -0.261952,-0.441915 -0.112197,-0.06021 -0.40519,-0.06462 -0.509966,-0.0077 -0.0945,0.05135 -0.308792,0.271026 -0.579668,0.594232 -0.299097,0.35688 -0.519257,0.583654 -0.75435,0.777014 -0.388527,0.319555 -0.583986,0.537568 -0.673034,0.750688 -0.03861,0.0924 -0.07255,0.263645 -0.254397,1.283545 -0.07412,0.415724 -0.140949,0.785941 -0.148502,0.822706 -0.02584,0.125761 0.14317,0.2251 0.247794,0.14565 z m 1.784989,0.0027 c 0.01882,-0.01443 0.08274,-0.149073 0.142041,-0.299195 0.17264,-0.437065 0.223393,-0.507736 0.774544,-1.078519 0.207765,-0.215165 0.429953,-0.457187 0.49375,-0.537826 0.459678,-0.581025 0.663592,-1.463668 0.579736,-2.509392 -0.01065,-0.132801 -0.05289,-0.676075 -0.09386,-1.207277 -0.107142,-1.389024 -0.09332,-1.312541 -0.265146,-1.467029 -0.167655,-0.150736 -0.384855,-0.177222 -0.575087,-0.07013 -0.112317,0.06323 -0.193008,0.185667 -0.234696,0.356125 -0.03317,0.135643 -0.03736,0.141724 -0.09745,0.141724 -0.110428,0 -0.225009,0.04709 -0.32173,0.132229 -0.11877,0.104546 -0.177992,0.219937 -0.191964,0.374033 -0.01091,0.120269 -0.01134,0.120939 -0.08815,0.133914 -0.128872,0.02177 -0.29074,0.128253 -0.359295,0.236353 -0.05966,0.09408 -0.06184,0.106445 -0.06184,0.351156 0,0.404536 0.08547,1.020379 0.150652,1.085566 0.09618,0.09618 0.281956,-1.69e-4 0.260109,-0.134902 -0.05003,-0.308541 -0.09694,-0.793549 -0.09168,-0.947888 0.0059,-0.171856 0.01056,-0.189723 0.05885,-0.223646 0.02887,-0.02028 0.07765,-0.04249 0.108396,-0.04937 0.05147,-0.01151 0.05686,-0.0063 0.06793,0.06618 0.0066,0.04327 0.02199,0.244019 0.03417,0.446106 0.02914,0.483469 0.05493,0.612231 0.127748,0.637728 0.07579,0.02654 0.158677,0.0013 0.199235,-0.06055 0.03158,-0.0482 0.03081,-0.0966 -0.01048,-0.655794 -0.07741,-1.048659 -0.07457,-0.956302 -0.03062,-0.995346 0.03384,-0.03006 0.173546,-0.08036 0.224151,-0.08071 0.0094,-6.2e-5 0.01478,0.39571 0.01187,0.879497 -0.0048,0.799509 -0.002,0.884598 0.03055,0.934328 0.02862,0.04368 0.05259,0.05471 0.118867,0.05471 0.06705,0 0.09018,-0.01092 0.120243,-0.05678 0.03407,-0.05197 0.03812,-0.149392 0.04772,-1.149537 l 0.01049,-1.092757 0.05859,-0.07659 c 0.05546,-0.07249 0.06205,-0.0753 0.123137,-0.05249 0.0355,0.01325 0.08555,0.04349 0.111225,0.06719 0.05459,0.05039 0.0416,-0.06373 0.161374,1.417605 0.135115,1.67117 0.121462,2.031996 -0.101638,2.686041 -0.133643,0.391787 -0.261615,0.569848 -0.826222,1.149604 -0.402298,0.41309 -0.571663,0.626868 -0.700986,0.884806 -0.103975,0.207381 -0.207727,0.505638 -0.207727,0.597152 0,0.11121 0.153064,0.18277 0.243158,0.113681 z m -2.293776,-3.591313 v -2.021851 l 0.14788,-0.02536 c 0.461968,-0.07922 0.914064,-0.390118 1.160798,-0.798262 0.172506,-0.285357 0.244098,-0.554262 0.244667,-0.918996 0.0012,-0.797773 -0.530413,-1.469926 -1.320464,-1.669392 -0.150024,-0.03788 -0.21783,-0.04303 -0.451415,-0.03432 -0.155238,0.0058 -0.329706,0.02514 -0.400851,0.04445 -0.181038,0.04915 -0.483617,0.203844 -0.629153,0.321654 -0.584105,0.47283 -0.800739,1.29682 -0.524076,1.993378 0.132733,0.334185 0.419594,0.670258 0.723725,0.84788 0.153466,0.08963 0.45325,0.197536 0.613218,0.220729 l 0.09973,0.01446 v 0.273761 0.273761 l -0.120728,-0.114533 c -0.199481,-0.189247 -0.349523,-0.275438 -0.635133,-0.364854 -0.08922,-0.02793 -0.222141,-0.03852 -0.584638,-0.04657 l -0.469163,-0.01042 0.0082,0.490701 c 0.0079,0.471577 0.01046,0.497241 0.06653,0.658469 0.108369,0.311603 0.301481,0.5635 0.569339,0.742654 0.267413,0.178857 0.545884,0.254863 0.933761,0.254863 h 0.231843 v 0.944826 0.944825 h 0.16797 0.167969 z m -0.829348,-0.203029 c -0.25649,-0.02961 -0.51384,-0.164612 -0.697508,-0.365904 -0.210851,-0.231081 -0.299806,-0.494395 -0.299806,-0.887431 v -0.238097 l 0.225706,3.61e-4 c 0.12414,2.01e-4 0.288059,0.01358 0.364266,0.02973 0.524558,0.111192 0.900751,0.57469 0.900751,1.109789 v 0.13001 l -0.451111,-0.450745 -0.451111,-0.450745 -0.105286,0.103703 c -0.05791,0.05704 -0.105286,0.113426 -0.105286,0.125309 0,0.01189 0.200694,0.222462 0.445984,0.467953 0.49848,0.498885 0.483405,0.461845 0.173401,0.426058 z m 0.409424,-2.172382 c -0.512316,-0.108583 -0.890014,-0.433608 -1.067039,-0.918227 -0.05099,-0.139604 -0.05625,-0.181476 -0.05625,-0.447944 0,-0.253976 0.0068,-0.313931 0.04979,-0.440919 0.07095,-0.209433 0.157579,-0.352769 0.312387,-0.516873 0.169855,-0.180055 0.35222,-0.295865 0.592841,-0.376481 0.157452,-0.05275 0.22165,-0.06309 0.393424,-0.06337 0.229917,-3.61e-4 0.368128,0.0213 0.521524,0.08176 0.714439,0.281606 1.07684,1.069647 0.81881,1.78051 -0.107309,0.295633 -0.336939,0.573953 -0.600178,0.727436 -0.28614,0.166837 -0.671587,0.236357 -0.965306,0.174104 z m 0.580343,-0.405599 c -0.0057,-0.02021 -0.01648,-0.07926 -0.02394,-0.131226 -0.02348,-0.163494 -0.02374,-0.163823 -0.132005,-0.165294 -0.177689,-0.0024 -0.357515,-0.08699 -0.434379,-0.204303 -0.04133,-0.06308 -0.02816,-0.0628 0.146982,0.0031 0.0781,0.0294 0.156305,0.05065 0.17379,0.04724 0.02625,-0.0051 0.142337,-0.285752 0.124732,-0.301519 -0.006,-0.0054 -0.563105,-0.198096 -0.572633,-0.198096 -0.01185,0 0.03632,-0.156609 0.06576,-0.213806 l 0.02899,-0.05633 0.27751,0.09308 c 0.152632,0.05119 0.284124,0.09308 0.292206,0.09308 0.01548,0 0.102534,-0.242156 0.102534,-0.285222 0,-0.01381 -0.07559,-0.05197 -0.16797,-0.0848 -0.09238,-0.03282 -0.167967,-0.0665 -0.167967,-0.07484 0,-0.02576 0.145296,-0.04399 0.243408,-0.03054 0.110115,0.01509 0.207116,0.06079 0.286343,0.134906 l 0.05734,0.05364 0.113613,-0.103277 c 0.06249,-0.0568 0.114632,-0.114399 0.115877,-0.127993 0.0033,-0.03589 -0.138263,-0.147129 -0.262186,-0.206034 -0.278443,-0.132357 -0.613653,-0.10702 -0.887325,0.06707 l -0.112468,0.07154 -0.127382,-0.04302 c -0.07006,-0.02366 -0.130508,-0.03989 -0.134327,-0.03607 -0.0038,0.0038 -0.0301,0.07501 -0.05839,0.158206 l -0.05145,0.151262 0.05291,0.02011 c 0.0291,0.01106 0.06174,0.02011 0.07254,0.02011 0.02716,0 0.02246,0.03536 -0.02093,0.15747 -0.03797,0.10687 -0.05063,0.114257 -0.158297,0.09239 -0.03393,-0.0069 -0.04977,0.01427 -0.08798,0.117572 -0.06808,0.184024 -0.06695,0.18741 0.07697,0.230985 0.119486,0.03618 0.127275,0.04264 0.149103,0.123701 0.05433,0.201769 0.198374,0.404257 0.374302,0.526177 0.122928,0.08519 0.302413,0.135022 0.49098,0.136319 0.146567,10e-4 0.163024,-0.0028 0.153757,-0.03561 z"
             id="path852"
             sodipodi:nodetypes="cssssssssssssscsscsssssssscsssssccsssssssssssccsssssssssssssssssssssssssssssssssssssssssssssssssssssssssssssssssssssssssscsssssssssccsscssssssscccssscssssccccccsssccsscccsssssssscsssssssssssssssscssssssscscsscssscssssssssss" />
        </g>
        <text
           xml:space="preserve"
           style="font-size:25.1575px;line-height:1.25;font-family:sans-serif;fill:url(#linearGradient911);fill-opacity:1;stroke-width:1.71529"
           x="18.315767"
           y="22.296284"
           id="text2800"><tspan
             sodipodi:role="line"
             id="tspan2798"
             x="18.315767"
             y="22.296284"
             style="font-style:normal;font-variant:normal;font-weight:normal;font-stretch:normal;font-family:Montserrat;-inkscape-font-specification:Montserrat;fill:url(#linearGradient911);fill-opacity:1;stroke-width:1.71529">Solutio care</tspan></text>
      </g>
    </g>
  </g>
</svg>
