<?xml version="1.0" encoding="UTF-8" standalone="no"?>
<svg
   xmlns:dc="http://purl.org/dc/elements/1.1/"
   xmlns:cc="http://creativecommons.org/ns#"
   xmlns:rdf="http://www.w3.org/1999/02/22-rdf-syntax-ns#"
   xmlns:svg="http://www.w3.org/2000/svg"
   xmlns="http://www.w3.org/2000/svg"
   xmlns:sodipodi="http://sodipodi.sourceforge.net/DTD/sodipodi-0.dtd"
   xmlns:inkscape="http://www.inkscape.org/namespaces/inkscape"
   viewBox="0 0 2800 512"
   version="1.1"
   id="svg4"
   sodipodi:docname="graduation-cap-solid.svg"
   inkscape:version="1.0.2-2 (e86c870879, 2021-01-15)"
   width="2800"
   height="512">
  <metadata
     id="metadata10">
    <rdf:RDF>
      <cc:Work
         rdf:about="">
        <dc:format>image/svg+xml</dc:format>
        <dc:type
           rdf:resource="http://purl.org/dc/dcmitype/StillImage" />
        <dc:title></dc:title>
      </cc:Work>
    </rdf:RDF>
  </metadata>
  <defs
     id="defs8" />
  <sodipodi:namedview
     pagecolor="#ffffff"
     bordercolor="#666666"
     borderopacity="1"
     objecttolerance="10"
     gridtolerance="10"
     guidetolerance="10"
     inkscape:pageopacity="0"
     inkscape:pageshadow="2"
     inkscape:window-width="1920"
     inkscape:window-height="1111"
     id="namedview6"
     showgrid="false"
     inkscape:zoom="0.50754247"
     inkscape:cx="1372.8432"
     inkscape:cy="120.45041"
     inkscape:window-x="-9"
     inkscape:window-y="-9"
     inkscape:window-maximized="1"
     inkscape:current-layer="svg4"
     inkscape:document-rotation="0"
     showguides="false" />
  <!--! Font Awesome Pro 6.1.2 by @fontawesome - https://fontawesome.com License - https://fontawesome.com/license (Commercial License) Copyright 2022 Fonticons, Inc. -->
  <g
     id="g839"
     transform="translate(38.482163,-0.00875)">
    <path
       d="M 623.1,136.9 340.4,35.7 c -13.73,-4.91 -28.7,-4.91 -42.43,0 L 16.05,136.9 C 6.438,140.4 0,149.6 0,160 c 0,10.4 6.438,19.65 16.05,23.09 L 76.07,204.6 C 64.18,220.4 55.81,238.76 51.52,258.55 40.05,263.4 32,274.8 32,288 c 0,9.953 4.814,18.49 11.94,24.36 l -24.83,149 C 17.48,471.1 25,480 34.89,480 h 58.22 c 9.887,0 17.41,-8.879 15.78,-18.63 l -24.83,-149 C 91.19,306.5 96,297.1 96,288 c 0,-10.29 -5.174,-19.03 -12.72,-24.89 4.252,-17.76 12.88,-33.82 24.94,-47.03 l 190.6,68.23 c 13.73,4.91 28.7,4.91 42.43,0 l 282.7,-101.2 C 633.6,179.6 640,170.4 640,160 c 0,-10.4 -6.4,-19.6 -16.9,-23.1 z m -272,177.5 c -9.4,3.7 -20.2,5.6 -31.1,5.6 -10.92,0 -21.69,-1.867 -32,-5.555 L 142.8,262.5 128,405.3 c 0,41.3 85.1,74.7 192,74.7 105.1,0 192,-33.4 192,-74.67 l -14.78,-142.9 z"
       id="path2"
       style="fill:#ffffff;fill-opacity:1" />
    <text
       xml:space="preserve"
       style="font-size:571.031px;line-height:1.25;font-family:sans-serif;fill:#ffffff;fill-opacity:1;stroke-width:38.9339"
       x="738.13531"
       y="469.57434"
       id="text834"><tspan
         sodipodi:role="line"
         id="tspan832"
         x="738.13531"
         y="469.57434"
         style="font-style:normal;font-variant:normal;font-weight:normal;font-stretch:normal;font-family:Montserrat;-inkscape-font-specification:Montserrat;fill:#ffffff;fill-opacity:1;stroke-width:38.9339">Solutio</tspan></text>
  </g>
</svg>
