<?xml version="1.0" encoding="UTF-8" standalone="no"?>
<svg
   xmlns:dc="http://purl.org/dc/elements/1.1/"
   xmlns:cc="http://creativecommons.org/ns#"
   xmlns:rdf="http://www.w3.org/1999/02/22-rdf-syntax-ns#"
   xmlns:svg="http://www.w3.org/2000/svg"
   xmlns="http://www.w3.org/2000/svg"
   xmlns:sodipodi="http://sodipodi.sourceforge.net/DTD/sodipodi-0.dtd"
   xmlns:inkscape="http://www.inkscape.org/namespaces/inkscape"
   width="100mm"
   height="100mm"
   viewBox="0 0 100 100"
   version="1.1"
   id="svg2120"
   inkscape:version="1.0.2-2 (e86c870879, 2021-01-15)"
   sodipodi:docname="arrow-text.svg">
  <defs
     id="defs2114" />
  <sodipodi:namedview
     id="base"
     pagecolor="#ffffff"
     bordercolor="#666666"
     borderopacity="1.0"
     inkscape:pageopacity="0.0"
     inkscape:pageshadow="2"
     inkscape:zoom="0.175"
     inkscape:cx="1512.7027"
     inkscape:cy="-272.1039"
     inkscape:document-units="mm"
     inkscape:current-layer="layer1"
     inkscape:document-rotation="0"
     showgrid="false"
     inkscape:window-width="1718"
     inkscape:window-height="1360"
     inkscape:window-x="-7"
     inkscape:window-y="0"
     inkscape:window-maximized="0" />
  <metadata
     id="metadata2117">
    <rdf:RDF>
      <cc:Work
         rdf:about="">
        <dc:format>image/svg+xml</dc:format>
        <dc:type
           rdf:resource="http://purl.org/dc/dcmitype/StillImage" />
        <dc:title></dc:title>
      </cc:Work>
    </rdf:RDF>
  </metadata>
  <g
     inkscape:label="Layer 1"
     inkscape:groupmode="layer"
     id="layer1">
    <rect
       style="opacity:0.578275;fill:#55fabe;stroke-width:13.935;stroke-linecap:round;stroke-linejoin:bevel"
       id="rect835"
       width="679.97736"
       height="288.81189"
       x="-119.69106"
       y="186.91547" />
    <path
       style="fill:#ffffff;fill-opacity:1;stroke-width:0.434727"
       d="M 22.286007,81.012775 C 18.218713,77.122314 8.8761991,66.382074 8.683826,65.375577 c -0.6042732,-3.162755 1.907911,-6.02775 4.906722,-5.595074 1.178338,0.170184 2.183901,0.91 4.458514,3.281266 1.615385,1.683855 3.033634,3.061661 3.151752,3.061661 0.117883,0 0.214702,-10.163444 0.214702,-22.585344 0,-16.584675 0.138178,-22.888177 0.519173,-23.725259 0.937329,-2.057264 3.848386,-2.945019 6.177498,-1.883868 2.408429,1.097373 2.432398,1.351029 2.432398,25.763086 0,12.337275 0.06247,22.431385 0.140534,22.431385 0.07809,0 1.634355,-1.494057 3.460377,-3.320157 3.183993,-3.183914 3.385886,-3.309529 4.921476,-3.060326 2.852264,0.462954 4.699524,3.324676 3.857828,5.976619 -0.310727,0.979718 -6.388676,7.888116 -12.115934,13.771754 -2.872805,2.951264 -3.187196,3.151752 -4.943177,3.151752 -1.574236,0 -2.149,-0.261523 -3.579665,-1.630298 z m 28.906332,0.580854 c -1.948433,-1.948433 -1.948433,-4.647371 0,-6.595804 l 1.049365,-1.049356 h 18.311661 18.311774 l 1.270777,1.27069 c 0.996576,0.996584 1.27069,1.66027 1.27069,3.076573 0,1.416215 -0.27401,2.079901 -1.27069,3.076494 l -1.270777,1.270768 H 70.553365 52.241704 Z m 0.01553,-18.68214 c -2.27415,-2.274229 -1.737483,-5.92252 1.078326,-7.329608 1.34135,-0.670632 2.933464,-0.757286 13.475991,-0.736213 13.685877,0.03106 14.56738,0.179564 15.814965,2.734303 0.691712,1.417157 0.741675,1.924463 0.32323,3.321168 -0.908988,3.03394 -0.986672,3.048625 -16.142322,3.048625 H 52.246652 Z M 51.77799,44.591507 c -1.365162,-0.741678 -2.287578,-3.143552 -1.894491,-4.933421 0.150674,-0.686251 0.768236,-1.712816 1.372352,-2.280785 1.064731,-1.001349 1.351489,-1.037104 9.432728,-1.174512 7.136066,-0.121011 8.530345,-0.03901 9.696267,0.583978 3.033085,1.617253 3.152529,6.269616 0.200645,7.796387 -1.829913,0.946228 -17.067356,0.952706 -18.806951,0.0079 z m 0.280275,-18.635146 c -1.508026,-0.657365 -2.380402,-2.262048 -2.380402,-4.379507 0,-1.068176 0.374747,-1.842255 1.376096,-2.843758 l 1.376086,-1.376168 4.317203,0.147567 c 4.200141,0.142873 4.345361,0.1819 5.359903,1.451351 1.897292,2.372672 1.029994,6.204586 -1.612882,7.12583 -1.872398,0.652679 -6.819222,0.579291 -8.436004,-0.124923 z"
       id="path2073" />
  </g>
</svg>
