<?xml version="1.0" encoding="UTF-8" standalone="no"?>
<svg
   xmlns:dc="http://purl.org/dc/elements/1.1/"
   xmlns:cc="http://creativecommons.org/ns#"
   xmlns:rdf="http://www.w3.org/1999/02/22-rdf-syntax-ns#"
   xmlns:svg="http://www.w3.org/2000/svg"
   xmlns="http://www.w3.org/2000/svg"
   xmlns:sodipodi="http://sodipodi.sourceforge.net/DTD/sodipodi-0.dtd"
   xmlns:inkscape="http://www.inkscape.org/namespaces/inkscape"
   width="300mm"
   height="100mm"
   viewBox="0 0 300 100"
   version="1.1"
   id="svg1956"
   inkscape:version="1.0.2-2 (e86c870879, 2021-01-15)"
   sodipodi:docname="intro.svg">
  <defs
     id="defs1950">
    <marker
       style="overflow:visible"
       id="marker13891"
       refX="0"
       refY="0"
       orient="auto"
       inkscape:stockid="TriangleOutS"
       inkscape:isstock="true">
      <path
         transform="scale(0.2)"
         style="fill:#ffffff;fill-opacity:1;fill-rule:evenodd;stroke:#ffffff;stroke-width:1pt;stroke-opacity:1"
         d="M 5.77,0 -2.88,5 V -5 Z"
         id="path13889" />
    </marker>
    <marker
       style="overflow:visible"
       id="marker13881"
       refX="0"
       refY="0"
       orient="auto"
       inkscape:stockid="TriangleOutS"
       inkscape:isstock="true">
      <path
         transform="scale(0.2)"
         style="fill:#ffffff;fill-opacity:1;fill-rule:evenodd;stroke:#ffffff;stroke-width:1pt;stroke-opacity:1"
         d="M 5.77,0 -2.88,5 V -5 Z"
         id="path13879" />
    </marker>
    <marker
       style="overflow:visible"
       id="marker3825"
       refX="0"
       refY="0"
       orient="auto"
       inkscape:stockid="TriangleOutS"
       inkscape:isstock="true"
       inkscape:collect="always">
      <path
         transform="scale(0.2)"
         style="fill:#ffffff;fill-opacity:1;fill-rule:evenodd;stroke:#ffffff;stroke-width:1pt;stroke-opacity:1"
         d="M 5.77,0 -2.88,5 V -5 Z"
         id="path3823" />
    </marker>
    <marker
       style="overflow:visible"
       id="marker3731"
       refX="0"
       refY="0"
       orient="auto"
       inkscape:stockid="TriangleOutS"
       inkscape:isstock="true">
      <path
         transform="scale(0.2)"
         style="fill:#000000;fill-opacity:1;fill-rule:evenodd;stroke:#000000;stroke-width:1pt;stroke-opacity:1"
         d="M 5.77,0 -2.88,5 V -5 Z"
         id="path3729" />
    </marker>
    <marker
       style="overflow:visible"
       id="marker3643"
       refX="0"
       refY="0"
       orient="auto"
       inkscape:stockid="TriangleOutS"
       inkscape:isstock="true">
      <path
         transform="scale(0.2)"
         style="fill:#ffffff;fill-opacity:1;fill-rule:evenodd;stroke:#ffffff;stroke-width:1pt;stroke-opacity:1"
         d="M 5.77,0 -2.88,5 V -5 Z"
         id="path3641" />
    </marker>
    <marker
       style="overflow:visible"
       id="marker3549"
       refX="0"
       refY="0"
       orient="auto"
       inkscape:stockid="TriangleOutS"
       inkscape:isstock="true">
      <path
         transform="scale(0.2)"
         style="fill:#000000;fill-opacity:1;fill-rule:evenodd;stroke:#000000;stroke-width:1pt;stroke-opacity:1"
         d="M 5.77,0 -2.88,5 V -5 Z"
         id="path3547" />
    </marker>
    <marker
       style="overflow:visible"
       id="TriangleOutL"
       refX="0"
       refY="0"
       orient="auto"
       inkscape:stockid="TriangleOutL"
       inkscape:isstock="true">
      <path
         transform="scale(0.8)"
         style="fill:#000000;fill-opacity:1;fill-rule:evenodd;stroke:#000000;stroke-width:1pt;stroke-opacity:1"
         d="M 5.77,0 -2.88,5 V -5 Z"
         id="path2965" />
    </marker>
    <marker
       style="overflow:visible"
       id="marker3337"
       refX="0"
       refY="0"
       orient="auto"
       inkscape:stockid="Arrow2Lend"
       inkscape:isstock="true">
      <path
         transform="matrix(-1.1,0,0,-1.1,-1.1,0)"
         d="M 8.7185878,4.0337352 -2.2072895,0.01601326 8.7185884,-4.0017078 c -1.7454984,2.3720609 -1.7354408,5.6174519 -6e-7,8.035443 z"
         style="fill:#000000;fill-opacity:1;fill-rule:evenodd;stroke:#000000;stroke-width:0.625;stroke-linejoin:round;stroke-opacity:1"
         id="path3335" />
    </marker>
    <marker
       style="overflow:visible"
       id="Arrow1Mend"
       refX="0"
       refY="0"
       orient="auto"
       inkscape:stockid="Arrow1Mend"
       inkscape:isstock="true">
      <path
         transform="matrix(-0.4,0,0,-0.4,-4,0)"
         style="fill:#000000;fill-opacity:1;fill-rule:evenodd;stroke:#000000;stroke-width:1pt;stroke-opacity:1"
         d="M 0,0 5,-5 -12.5,0 5,5 Z"
         id="path2832" />
    </marker>
    <marker
       style="overflow:visible"
       id="marker3205"
       refX="0"
       refY="0"
       orient="auto"
       inkscape:stockid="Arrow1Lend"
       inkscape:isstock="true">
      <path
         transform="matrix(-0.8,0,0,-0.8,-10,0)"
         style="fill:#000000;fill-opacity:1;fill-rule:evenodd;stroke:#000000;stroke-width:1pt;stroke-opacity:1"
         d="M 0,0 5,-5 -12.5,0 5,5 Z"
         id="path3203" />
    </marker>
    <marker
       style="overflow:visible"
       id="marker3165"
       refX="0"
       refY="0"
       orient="auto"
       inkscape:stockid="Arrow1Lend"
       inkscape:isstock="true">
      <path
         transform="matrix(-0.8,0,0,-0.8,-10,0)"
         style="fill:#ffffff;fill-opacity:1;fill-rule:evenodd;stroke:#ffffff;stroke-width:1pt;stroke-opacity:1"
         d="M 0,0 5,-5 -12.5,0 5,5 Z"
         id="path3163" />
    </marker>
    <marker
       style="overflow:visible"
       id="Arrow1Lstart"
       refX="0"
       refY="0"
       orient="auto"
       inkscape:stockid="Arrow1Lstart"
       inkscape:isstock="true">
      <path
         transform="matrix(0.8,0,0,0.8,10,0)"
         style="fill:#000000;fill-opacity:1;fill-rule:evenodd;stroke:#000000;stroke-width:1pt;stroke-opacity:1"
         d="M 0,0 5,-5 -12.5,0 5,5 Z"
         id="path2823" />
    </marker>
    <marker
       style="overflow:visible"
       id="Arrow2Lend"
       refX="0"
       refY="0"
       orient="auto"
       inkscape:stockid="Arrow2Lend"
       inkscape:isstock="true">
      <path
         transform="matrix(-1.1,0,0,-1.1,-1.1,0)"
         d="M 8.7185878,4.0337352 -2.2072895,0.01601326 8.7185884,-4.0017078 c -1.7454984,2.3720609 -1.7354408,5.6174519 -6e-7,8.035443 z"
         style="fill:#000000;fill-opacity:1;fill-rule:evenodd;stroke:#000000;stroke-width:0.625;stroke-linejoin:round;stroke-opacity:1"
         id="path2844" />
    </marker>
    <marker
       style="overflow:visible"
       id="Arrow1Lend"
       refX="0"
       refY="0"
       orient="auto"
       inkscape:stockid="Arrow1Lend"
       inkscape:isstock="true">
      <path
         transform="matrix(-0.8,0,0,-0.8,-10,0)"
         style="fill:#000000;fill-opacity:1;fill-rule:evenodd;stroke:#000000;stroke-width:1pt;stroke-opacity:1"
         d="M 0,0 5,-5 -12.5,0 5,5 Z"
         id="path2826" />
    </marker>
    <marker
       style="overflow:visible"
       id="marker3825-0"
       refX="0"
       refY="0"
       orient="auto"
       inkscape:stockid="TriangleOutS"
       inkscape:isstock="true">
      <path
         transform="scale(0.2)"
         style="fill:#ffffff;fill-opacity:1;fill-rule:evenodd;stroke:#ffffff;stroke-width:1pt;stroke-opacity:1"
         d="M 5.77,0 -2.88,5 V -5 Z"
         id="path3823-1" />
    </marker>
    <marker
       style="overflow:visible"
       id="marker3825-0-3"
       refX="0"
       refY="0"
       orient="auto"
       inkscape:stockid="TriangleOutS"
       inkscape:isstock="true">
      <path
         transform="scale(0.2)"
         style="fill:#ffffff;fill-opacity:1;fill-rule:evenodd;stroke:#ffffff;stroke-width:1pt;stroke-opacity:1"
         d="M 5.77,0 -2.88,5 V -5 Z"
         id="path3823-1-7" />
    </marker>
    <marker
       style="overflow:visible"
       id="marker3825-0-3-6"
       refX="0"
       refY="0"
       orient="auto"
       inkscape:stockid="TriangleOutS"
       inkscape:isstock="true">
      <path
         transform="scale(0.2)"
         style="fill:#ffffff;fill-opacity:1;fill-rule:evenodd;stroke:#ffffff;stroke-width:1pt;stroke-opacity:1"
         d="M 5.77,0 -2.88,5 V -5 Z"
         id="path3823-1-7-2" />
    </marker>
    <marker
       style="overflow:visible"
       id="marker3825-0-4"
       refX="0"
       refY="0"
       orient="auto"
       inkscape:stockid="TriangleOutS"
       inkscape:isstock="true">
      <path
         transform="scale(0.2)"
         style="fill:#000000;fill-opacity:1;fill-rule:evenodd;stroke:#000000;stroke-width:1pt;stroke-opacity:1"
         d="M 5.77,0 -2.88,5 V -5 Z"
         id="path3823-1-9" />
    </marker>
    <marker
       style="overflow:visible"
       id="marker3825-0-3-4"
       refX="0"
       refY="0"
       orient="auto"
       inkscape:stockid="TriangleOutS"
       inkscape:isstock="true">
      <path
         transform="scale(0.2)"
         style="fill:#000000;fill-opacity:1;fill-rule:evenodd;stroke:#000000;stroke-width:1pt;stroke-opacity:1"
         d="M 5.77,0 -2.88,5 V -5 Z"
         id="path3823-1-7-5" />
    </marker>
    <marker
       style="overflow:visible"
       id="marker3825-0-3-6-5"
       refX="0"
       refY="0"
       orient="auto"
       inkscape:stockid="TriangleOutS"
       inkscape:isstock="true">
      <path
         transform="scale(0.2)"
         style="fill:#000000;fill-opacity:1;fill-rule:evenodd;stroke:#000000;stroke-width:1pt;stroke-opacity:1"
         d="M 5.77,0 -2.88,5 V -5 Z"
         id="path3823-1-7-2-0" />
    </marker>
    <marker
       style="overflow:visible"
       id="marker3825-0-8"
       refX="0"
       refY="0"
       orient="auto"
       inkscape:stockid="TriangleOutS"
       inkscape:isstock="true">
      <path
         transform="scale(0.2)"
         style="fill:#000000;fill-opacity:1;fill-rule:evenodd;stroke:#000000;stroke-width:1pt;stroke-opacity:1"
         d="M 5.77,0 -2.88,5 V -5 Z"
         id="path3823-1-1" />
    </marker>
    <marker
       style="overflow:visible"
       id="marker3825-0-3-65"
       refX="0"
       refY="0"
       orient="auto"
       inkscape:stockid="TriangleOutS"
       inkscape:isstock="true">
      <path
         transform="scale(0.2)"
         style="fill:#000000;fill-opacity:1;fill-rule:evenodd;stroke:#000000;stroke-width:1pt;stroke-opacity:1"
         d="M 5.77,0 -2.88,5 V -5 Z"
         id="path3823-1-7-1" />
    </marker>
    <marker
       style="overflow:visible"
       id="marker3825-0-3-6-0"
       refX="0"
       refY="0"
       orient="auto"
       inkscape:stockid="TriangleOutS"
       inkscape:isstock="true">
      <path
         transform="scale(0.2)"
         style="fill:#000000;fill-opacity:1;fill-rule:evenodd;stroke:#000000;stroke-width:1pt;stroke-opacity:1"
         d="M 5.77,0 -2.88,5 V -5 Z"
         id="path3823-1-7-2-05" />
    </marker>
    <marker
       style="overflow:visible"
       id="marker3825-0-1"
       refX="0"
       refY="0"
       orient="auto"
       inkscape:stockid="TriangleOutS"
       inkscape:isstock="true">
      <path
         transform="scale(0.2)"
         style="fill:#000000;fill-opacity:1;fill-rule:evenodd;stroke:#000000;stroke-width:1pt;stroke-opacity:1"
         d="M 5.77,0 -2.88,5 V -5 Z"
         id="path3823-1-97" />
    </marker>
    <marker
       style="overflow:visible"
       id="marker3825-0-3-5"
       refX="0"
       refY="0"
       orient="auto"
       inkscape:stockid="TriangleOutS"
       inkscape:isstock="true">
      <path
         transform="scale(0.2)"
         style="fill:#000000;fill-opacity:1;fill-rule:evenodd;stroke:#000000;stroke-width:1pt;stroke-opacity:1"
         d="M 5.77,0 -2.88,5 V -5 Z"
         id="path3823-1-7-9" />
    </marker>
    <marker
       style="overflow:visible"
       id="marker3825-0-3-6-6"
       refX="0"
       refY="0"
       orient="auto"
       inkscape:stockid="TriangleOutS"
       inkscape:isstock="true">
      <path
         transform="scale(0.2)"
         style="fill:#000000;fill-opacity:1;fill-rule:evenodd;stroke:#000000;stroke-width:1pt;stroke-opacity:1"
         d="M 5.77,0 -2.88,5 V -5 Z"
         id="path3823-1-7-2-6" />
    </marker>
    <marker
       style="overflow:visible"
       id="marker3825-0-3-6-5-7"
       refX="0"
       refY="0"
       orient="auto"
       inkscape:stockid="TriangleOutS"
       inkscape:isstock="true">
      <path
         transform="scale(0.2)"
         style="fill:#000000;fill-opacity:1;fill-rule:evenodd;stroke:#000000;stroke-width:1pt;stroke-opacity:1"
         d="M 5.77,0 -2.88,5 V -5 Z"
         id="path3823-1-7-2-0-1" />
    </marker>
    <marker
       style="overflow:visible"
       id="marker3825-0-3-4-3"
       refX="0"
       refY="0"
       orient="auto"
       inkscape:stockid="TriangleOutS"
       inkscape:isstock="true">
      <path
         transform="scale(0.2)"
         style="fill:#000000;fill-opacity:1;fill-rule:evenodd;stroke:#000000;stroke-width:1pt;stroke-opacity:1"
         d="M 5.77,0 -2.88,5 V -5 Z"
         id="path3823-1-7-5-2" />
    </marker>
    <marker
       style="overflow:visible"
       id="marker3825-0-4-9"
       refX="0"
       refY="0"
       orient="auto"
       inkscape:stockid="TriangleOutS"
       inkscape:isstock="true">
      <path
         transform="scale(0.2)"
         style="fill:#000000;fill-opacity:1;fill-rule:evenodd;stroke:#000000;stroke-width:1pt;stroke-opacity:1"
         d="M 5.77,0 -2.88,5 V -5 Z"
         id="path3823-1-9-9" />
    </marker>
    <marker
       style="overflow:visible"
       id="marker3825-0-7"
       refX="0"
       refY="0"
       orient="auto"
       inkscape:stockid="TriangleOutS"
       inkscape:isstock="true">
      <path
         transform="scale(0.2)"
         style="fill:#ffffff;fill-opacity:1;fill-rule:evenodd;stroke:#ffffff;stroke-width:1pt;stroke-opacity:1"
         d="M 5.77,0 -2.88,5 V -5 Z"
         id="path3823-1-78" />
    </marker>
    <marker
       style="overflow:visible"
       id="marker3825-0-3-0"
       refX="0"
       refY="0"
       orient="auto"
       inkscape:stockid="TriangleOutS"
       inkscape:isstock="true">
      <path
         transform="scale(0.2)"
         style="fill:#ffffff;fill-opacity:1;fill-rule:evenodd;stroke:#ffffff;stroke-width:1pt;stroke-opacity:1"
         d="M 5.77,0 -2.88,5 V -5 Z"
         id="path3823-1-7-0" />
    </marker>
    <marker
       style="overflow:visible"
       id="marker3825-0-3-6-62"
       refX="0"
       refY="0"
       orient="auto"
       inkscape:stockid="TriangleOutS"
       inkscape:isstock="true">
      <path
         transform="scale(0.2)"
         style="fill:#ffffff;fill-opacity:1;fill-rule:evenodd;stroke:#ffffff;stroke-width:1pt;stroke-opacity:1"
         d="M 5.77,0 -2.88,5 V -5 Z"
         id="path3823-1-7-2-3" />
    </marker>
    <marker
       style="overflow:visible"
       id="marker3825-0-77"
       refX="0"
       refY="0"
       orient="auto"
       inkscape:stockid="TriangleOutS"
       inkscape:isstock="true">
      <path
         transform="scale(0.2)"
         style="fill:#ffffff;fill-opacity:1;fill-rule:evenodd;stroke:#ffffff;stroke-width:1pt;stroke-opacity:1"
         d="M 5.77,0 -2.88,5 V -5 Z"
         id="path3823-1-0" />
    </marker>
    <marker
       style="overflow:visible"
       id="marker3825-0-3-2"
       refX="0"
       refY="0"
       orient="auto"
       inkscape:stockid="TriangleOutS"
       inkscape:isstock="true">
      <path
         transform="scale(0.2)"
         style="fill:#ffffff;fill-opacity:1;fill-rule:evenodd;stroke:#ffffff;stroke-width:1pt;stroke-opacity:1"
         d="M 5.77,0 -2.88,5 V -5 Z"
         id="path3823-1-7-7" />
    </marker>
    <marker
       style="overflow:visible"
       id="marker3825-0-3-6-3"
       refX="0"
       refY="0"
       orient="auto"
       inkscape:stockid="TriangleOutS"
       inkscape:isstock="true">
      <path
         transform="scale(0.2)"
         style="fill:#ffffff;fill-opacity:1;fill-rule:evenodd;stroke:#ffffff;stroke-width:1pt;stroke-opacity:1"
         d="M 5.77,0 -2.88,5 V -5 Z"
         id="path3823-1-7-2-8" />
    </marker>
    <marker
       style="overflow:visible"
       id="marker3825-0-9"
       refX="0"
       refY="0"
       orient="auto"
       inkscape:stockid="TriangleOutS"
       inkscape:isstock="true">
      <path
         transform="scale(0.2)"
         style="fill:#ffffff;fill-opacity:1;fill-rule:evenodd;stroke:#ffffff;stroke-width:1pt;stroke-opacity:1"
         d="M 5.77,0 -2.88,5 V -5 Z"
         id="path3823-1-3" />
    </marker>
    <marker
       style="overflow:visible"
       id="marker3825-0-3-1"
       refX="0"
       refY="0"
       orient="auto"
       inkscape:stockid="TriangleOutS"
       inkscape:isstock="true">
      <path
         transform="scale(0.2)"
         style="fill:#ffffff;fill-opacity:1;fill-rule:evenodd;stroke:#ffffff;stroke-width:1pt;stroke-opacity:1"
         d="M 5.77,0 -2.88,5 V -5 Z"
         id="path3823-1-7-8" />
    </marker>
    <marker
       style="overflow:visible"
       id="marker3825-0-3-6-34"
       refX="0"
       refY="0"
       orient="auto"
       inkscape:stockid="TriangleOutS"
       inkscape:isstock="true">
      <path
         transform="scale(0.2)"
         style="fill:#ffffff;fill-opacity:1;fill-rule:evenodd;stroke:#ffffff;stroke-width:1pt;stroke-opacity:1"
         d="M 5.77,0 -2.88,5 V -5 Z"
         id="path3823-1-7-2-39" />
    </marker>
    <marker
       style="overflow:visible"
       id="marker3825-0-5"
       refX="0"
       refY="0"
       orient="auto"
       inkscape:stockid="TriangleOutS"
       inkscape:isstock="true">
      <path
         transform="scale(0.2)"
         style="fill:#ffffff;fill-opacity:1;fill-rule:evenodd;stroke:#ffffff;stroke-width:1pt;stroke-opacity:1"
         d="M 5.77,0 -2.88,5 V -5 Z"
         id="path3823-1-30" />
    </marker>
    <marker
       style="overflow:visible"
       id="marker3825-0-3-59"
       refX="0"
       refY="0"
       orient="auto"
       inkscape:stockid="TriangleOutS"
       inkscape:isstock="true">
      <path
         transform="scale(0.2)"
         style="fill:#ffffff;fill-opacity:1;fill-rule:evenodd;stroke:#ffffff;stroke-width:1pt;stroke-opacity:1"
         d="M 5.77,0 -2.88,5 V -5 Z"
         id="path3823-1-7-51" />
    </marker>
    <marker
       style="overflow:visible"
       id="marker3825-0-3-6-8"
       refX="0"
       refY="0"
       orient="auto"
       inkscape:stockid="TriangleOutS"
       inkscape:isstock="true">
      <path
         transform="scale(0.2)"
         style="fill:#ffffff;fill-opacity:1;fill-rule:evenodd;stroke:#ffffff;stroke-width:1pt;stroke-opacity:1"
         d="M 5.77,0 -2.88,5 V -5 Z"
         id="path3823-1-7-2-5" />
    </marker>
    <marker
       style="overflow:visible"
       id="marker3643-7"
       refX="0"
       refY="0"
       orient="auto"
       inkscape:stockid="TriangleOutS"
       inkscape:isstock="true"
       inkscape:collect="always">
      <path
         transform="scale(0.2)"
         style="fill:#ffffff;fill-opacity:1;fill-rule:evenodd;stroke:#ffffff;stroke-width:1pt;stroke-opacity:1"
         d="M 5.77,0 -2.88,5 V -5 Z"
         id="path3641-6" />
    </marker>
    <marker
       style="overflow:visible"
       id="marker3643-2"
       refX="0"
       refY="0"
       orient="auto"
       inkscape:stockid="TriangleOutS"
       inkscape:isstock="true">
      <path
         transform="scale(0.2)"
         style="fill:#ffffff;fill-opacity:1;fill-rule:evenodd;stroke:#ffffff;stroke-width:1pt;stroke-opacity:1"
         d="M 5.77,0 -2.88,5 V -5 Z"
         id="path3641-0" />
    </marker>
  </defs>
  <sodipodi:namedview
     id="base"
     pagecolor="#ffffff"
     bordercolor="#666666"
     borderopacity="1.0"
     inkscape:pageopacity="0.0"
     inkscape:pageshadow="2"
     inkscape:zoom="1.4"
     inkscape:cx="509.64527"
     inkscape:cy="517.78849"
     inkscape:document-units="mm"
     inkscape:current-layer="layer1"
     inkscape:document-rotation="0"
     showgrid="false"
     inkscape:window-width="1920"
     inkscape:window-height="1111"
     inkscape:window-x="-9"
     inkscape:window-y="-9"
     inkscape:window-maximized="1" />
  <metadata
     id="metadata1953">
    <rdf:RDF>
      <cc:Work
         rdf:about="">
        <dc:format>image/svg+xml</dc:format>
        <dc:type
           rdf:resource="http://purl.org/dc/dcmitype/StillImage" />
        <dc:title></dc:title>
      </cc:Work>
    </rdf:RDF>
  </metadata>
  <g
     inkscape:label="Layer 1"
     inkscape:groupmode="layer"
     id="layer1">
    <rect
       style="fill:#be2828;fill-opacity:1;stroke:#000000;stroke-width:1;stroke-linecap:square;stroke-linejoin:bevel;stroke-miterlimit:4;stroke-dasharray:none;stroke-opacity:1;paint-order:stroke fill markers"
       id="rect12082"
       width="335.42325"
       height="122.94398"
       x="-19.483814"
       y="109.32452"
       ry="2.9400501" />
    <path
       d="m -272.20566,140.60796 c 0,7.01411 -5.68854,12.7 -12.7,12.7 -7.01146,0 -12.7,-5.68589 -12.7,-12.7 0,-7.0141 5.68854,-12.7 12.7,-12.7 7.01146,0 12.7,5.6859 12.7,12.7 z m -14.81666,80.43334 v 33.86666 c 0,4.68313 -3.78355,8.46667 -8.46667,8.46667 -4.68313,0 -8.46667,-3.78354 -8.46667,-8.46667 v -59.02854 l -7.55914,12.59417 c -2.40771,3.99521 -7.60942,5.29166 -11.61786,2.88396 -4.00854,-2.40771 -5.30516,-7.59355 -2.89639,-11.61521 l 15.41912,-25.63813 c 4.59052,-7.64645 12.84552,-12.32958 21.76198,-12.32958 h 7.88458 c 8.91646,0 17.17146,4.68313 21.77521,12.32958 l 15.39875,25.63813 c 2.40771,4.02166 1.11125,9.2075 -2.88396,11.61521 -4.02166,2.4077 -9.2075,1.11125 -11.6152,-2.88396 l -7.56709,-12.59417 v 59.02854 c 0,4.68313 -3.78354,8.46667 -8.46666,8.46667 -4.68313,0 -8.46667,-3.78354 -8.46667,-8.46667 V 221.0413 Z"
       id="path2-4"
       style="stroke-width:0.264583" />
    <path
       d="m -146.74037,199.38307 c 18.70605,0 33.86667,-15.16327 33.86667,-33.86666 0,-18.7034 -15.16062,-33.86667 -33.86667,-33.86667 -18.70604,0 -33.86666,15.16327 -33.86666,33.86667 0,18.70339 15.16062,33.86666 33.86666,33.86666 z m 13.41438,12.7 h -26.82875 c -25.32856,0 -45.85229,20.53167 -45.85229,45.85229 0,5.08 4.10633,9.18104 9.17046,9.18104 h 100.181829 c 5.08,0 9.181042,-4.10104 9.181042,-9.18104 0,-25.32062 -20.531671,-45.85229 -45.852291,-45.85229 z m 54.080832,4.23334 h -19.539479 c 12.157604,9.97479 19.777604,24.89729 19.777604,41.61895 0,3.38667 -1.005416,6.50875 -2.645833,9.18104 h 36.512499 c 4.68313,0 8.46667,-3.80999 8.46667,-8.70479 0,-23.15104 -18.94417,-42.0952 -42.571461,-42.0952 z m -12.461874,-16.93334 c 16.377708,0 29.633333,-13.25562 29.633333,-29.63333 0,-16.37771 -13.255625,-29.63333 -29.633333,-29.63333 -6.643688,0 -12.710588,2.26351 -17.652998,5.95577 3.048,5.85258 4.953,12.40631 4.953,19.44423 0,9.398 -3.15648,18.0287 -8.35819,25.05868 5.3684,5.42132 12.803188,8.80798 21.058188,8.80798 z"
       id="path2-6"
       style="stroke-width:0.264583" />
    <path
       d="m -257.71616,-17.767706 1.68539,0.39688 v 15.4781198 c -1.85208,1.09801997 -3.175,3.05594 -3.175,5.35781 0,2.21589 1.2237,4.06929 2.94217,5.22552 l -4.13279,16.4703202 c -0.46302,1.82562 0.56356,3.70416 2.01877,3.70416 h 11.04635 c 1.45521,0 2.48047,-1.88515 2.01745,-3.46604 l -4.13411,-16.6952102 c 1.71979,-1.16416 2.94216,-3.01625 2.94216,-5.23875 0,-2.3151 -1.32291,-4.26508003 -3.175,-5.35781 V -15.815076 l 13.75834,3.30729 2.6e-4,15.9728898 c 0,18.7192702 15.1474,33.8666702 33.86667,33.8666702 18.71927,0 33.62854,-15.1474 33.62854,-33.8666702 l 0.23786,-15.9755398 21.76198,-5.25727 c 4.82864,-1.15755 4.82864,-7.14375 0,-8.33437 l -50.37667,-12.17084 c -3.43958,-0.79375 -7.04321,-0.79375 -10.48544,0 l -50.42958,12.17084 c -4.79425,1.15887 -4.79425,7.17814 0.003,8.33437 z m 82.96539,61.66115 -27.305,27.305 -27.305,-27.305 c -18.50231,5.9002 -31.96166,23.07166 -31.96166,43.52395 0,5.08 4.10898,9.18104 9.1731,9.18104 h 100.19771 c 5.06148,0 9.16252,-4.10104 9.16252,-9.18104 0,-20.45229 -13.46729,-37.62375 -31.96167,-43.52395 z"
       id="path2-8"
       style="stroke-width:0.264583" />
    <path
       d="m -142.66682,-80.707912 c -0.15491,-0.0841 -0.30753,-0.17212 -0.458,-0.26434 l -0.52586,0.30221 c -0.40371,0.23569 -0.86298,0.35999 -1.32845,0.35999 -0.72039,0 -1.42127,-0.30214 -1.94861,-0.8576 -1.23832,-1.35132 -2.17193,-2.96968 -2.70533,-4.7017 -0.35999,-1.21478 0.1576,-2.48 1.1993,-3.04299 l 0.53932,-0.31406 c -0.004,-0.17629 -0.004,-0.35259 0,-0.52862 l -0.5149,-0.30006 c -0.82734,-0.46768 -1.3049,-1.32239 -1.32105,-2.24525 -0.97437,-0.26609 -1.99677,-0.42079 -3.05281,-0.42079 h -6.82049 c -6.43643,0 -11.65673,5.22635 -11.65673,11.66344 0,1.28473 1.04393,2.32731 2.33135,2.32731 h 25.46856 c 0.38521,0 0.73316,-0.11616 1.05334,-0.2817 -0.15276,-0.33524 -0.25964,-0.69281 -0.25964,-1.08025 z m -13.52664,-15.24185 c 4.75552,0 8.6097,-3.85486 8.6097,-8.609688 0,-4.75484 -3.85418,-8.6097 -8.6097,-8.6097 -4.75551,0 -8.60969,3.85486 -8.60969,8.6097 0,4.754828 3.85418,8.609688 8.60969,8.609688 z m 25.99725,7.88998 c 0.17656,-0.94169 0.17656,-1.917 0,-2.85869 l 1.73202,-1.00895 c 0.20179,-0.1093 0.29428,-0.34472 0.22702,-0.57173 -0.45403,-1.44617 -1.22756,-2.76654 -2.23651,-3.85957 -0.15134,-0.16816 -0.40357,-0.2102 -0.60536,-0.0925 l -1.73203,1.00088 c -0.73183,-0.62218 -1.57262,-1.10984 -2.48067,-1.42934 v -2.00949 c 0,-0.22702 -0.16816,-0.42881 -0.38677,-0.47085 -1.4966,-0.33631 -3.02684,-0.3279 -4.45618,0 -0.21861,0.042 -0.37836,0.24383 -0.37836,0.47085 v 2.00982 c -0.90805,0.3195 -1.74884,0.80716 -2.48067,1.42935 l -1.73808,-1.00424 c -0.19338,-0.11771 -0.44562,-0.0757 -0.60537,0.0925 -1.00895,1.09303 -1.78248,2.41341 -2.22843,3.85957 -0.0673,0.22701 0.0252,0.46243 0.2186,0.57174 l 1.73203,1.00894 c -0.16816,0.94169 -0.16816,1.91701 0,2.85869 l -1.73203,1.00895 c -0.20179,0.1093 -0.28587,0.34473 -0.2186,0.57174 0.44562,1.44616 1.21948,2.75779 2.22843,3.85956 0.15975,0.16816 0.40358,0.2102 0.60537,0.0925 l 1.74077,-1.00088 c 0.73182,0.62219 1.57262,1.10985 2.48067,1.42935 v 2.00982 c 0,0.22702 0.15975,0.42881 0.37836,0.47085 1.50535,0.33631 3.02684,0.3279 4.45619,0 0.2186,-0.042 0.38676,-0.24383 0.38676,-0.47085 v -2.00982 c 0.90805,-0.3195 1.74884,-0.80716 2.48067,-1.42935 l 1.73203,1.00088 c 0.19338,0.11771 0.45402,0.0757 0.60537,-0.0925 1.00895,-1.09302 1.78247,-2.4134 2.2365,-3.85956 0.0673,-0.22701 -0.0252,-0.46244 -0.22702,-0.57174 z m -7.70164,1.82956 c -1.7993,0 -3.26227,-1.46297 -3.26227,-3.26227 0,-1.79929 1.46297,-3.26227 3.26227,-3.26227 1.79929,0 3.26226,1.46298 3.26226,3.26227 0,1.7993 -1.45961,3.26227 -3.26226,3.26227 z"
       id="path2-0"
       style="stroke-width:0.0672632" />
    <path
       d="m 12.365431,78.216621 c 1.277996,0 2.295095,-1.036468 2.295095,-2.315133 0,-1.278665 -1.036021,-2.31513 -2.295095,-2.31513 -1.277997,0 -2.295096,1.036465 -2.295096,2.31513 -0.02003,1.277778 1.017321,2.315133 2.295096,2.315133 z m 1.113043,0.712347 h -2.221635 c -1.7474782,0 -3.1632692,1.328973 -3.1632692,2.967375 0,0.329458 0.282712,0.594366 0.632208,0.594366 h 7.2837572 c 0.349495,0 0.632208,-0.264905 0.632208,-0.594366 0,-1.638402 -1.415791,-2.967375 -3.163269,-2.967375 z m 3.163269,-4.274088 c 0.983485,0 1.78087,-0.797384 1.78087,-1.780865 0,-0.983483 -0.796939,-1.780871 -1.78087,-1.780871 -0.983485,0 -1.78087,0.797388 -1.78087,1.780871 0,0.983484 0.79694,1.780865 1.78087,1.780865 z m -7.3037912,1.246608 c 0,-0.121293 0.02186,-0.236631 0.03582,-0.354171 -0.242844,-0.133337 -0.509974,-0.180088 -0.792687,-0.180088 h -1.376167 c -1.082768,0 -1.960737,0.930503 -1.960737,2.076938 0,0.229287 0.175571,0.416279 0.392237,0.416279 H 10.077461 C 9.6228938,77.330638 9.3379538,76.65168 9.3379538,75.901488 Z M 8.0935698,74.65488 c 0.983485,0 1.780868,-0.797384 1.780868,-1.780865 0,-0.983483 -0.796938,-1.780871 -1.780868,-1.780871 -0.983485,0 -1.78087,0.797388 -1.78087,1.780871 0,0.983484 0.797385,1.780865 1.78087,1.780865 z m 9.4363822,0.712352 H 16.15334 c -0.28494,0 -0.553851,0.06761 -0.798275,0.183428 0.01338,0.117091 0.03562,0.230623 0.03562,0.350828 0,0.750417 -0.284494,1.429371 -0.73817,1.958961 h 4.445495 c 0.217265,0 0.393127,-0.186993 0.393127,-0.416279 0,-1.146438 -0.877078,-2.076938 -1.961183,-2.076938 z"
       id="path2-7"
       style="fill:#ffffff;fill-opacity:1;stroke-width:0.0222609" />
    <path
       d="m 122.77557,78.216621 c 1.278,0 2.2951,-1.036468 2.2951,-2.315132 0,-1.278665 -1.03603,-2.31513 -2.2951,-2.31513 -1.278,0 -2.2951,1.036465 -2.2951,2.31513 -0.02,1.277779 1.01733,2.315132 2.2951,2.315132 z m 1.11304,0.712347 h -2.22163 c -1.74748,0 -3.16327,1.328974 -3.16327,2.967375 0,0.329459 0.28271,0.594364 0.63221,0.594364 h 7.28376 c 0.34949,0 0.6322,-0.264901 0.6322,-0.594364 0,-1.638401 -1.41579,-2.967375 -3.16327,-2.967375 z m 3.16327,-4.274088 c 0.98349,0 1.78087,-0.797383 1.78087,-1.780867 0,-0.983483 -0.79694,-1.780867 -1.78087,-1.780867 -0.98348,0 -1.78087,0.797384 -1.78087,1.780867 0,0.983484 0.79694,1.780867 1.78087,1.780867 z m -7.30379,1.246609 c 0,-0.121293 0.0219,-0.23663 0.0358,-0.354171 -0.24284,-0.133337 -0.50997,-0.180088 -0.79269,-0.180088 h -1.37616 c -1.08277,0 -1.96074,0.930502 -1.96074,2.076938 0,0.229286 0.17557,0.416279 0.39224,0.416279 h 4.44104 c -0.45457,-0.529808 -0.7395,-1.208766 -0.7395,-1.958958 z m -1.24438,-1.246609 c 0.98348,0 1.78087,-0.797383 1.78087,-1.780867 0,-0.983483 -0.79694,-1.780867 -1.78087,-1.780867 -0.98349,0 -1.78087,0.797384 -1.78087,1.780867 0,0.983484 0.79738,1.780867 1.78087,1.780867 z m 9.43638,0.712353 h -1.37661 c -0.28494,0 -0.55385,0.06761 -0.79828,0.183428 0.0134,0.117091 0.0356,0.230623 0.0356,0.350828 0,0.750417 -0.28449,1.429372 -0.73816,1.958961 h 4.44549 c 0.21726,0 0.39312,-0.186996 0.39312,-0.416279 0,-1.146439 -0.87707,-2.076938 -1.96118,-2.076938 z"
       id="path2-7-8"
       style="fill:#ffffff;fill-opacity:1;stroke-width:0.0222609" />
    <path
       d="m 67.57049,78.216621 c 1.277997,0 2.295093,-1.036468 2.295093,-2.315132 0,-1.278665 -1.036018,-2.31513 -2.295093,-2.31513 -1.277995,0 -2.295096,1.036465 -2.295096,2.31513 -0.02003,1.277779 1.017321,2.315132 2.295096,2.315132 z m 1.113043,0.712347 H 66.4619 c -1.747478,0 -3.16327,1.328974 -3.16327,2.967375 0,0.329459 0.282712,0.594364 0.632209,0.594364 h 7.283755 c 0.349495,0 0.632206,-0.264901 0.632206,-0.594364 0,-1.638401 -1.415788,-2.967375 -3.163267,-2.967375 z M 71.8468,74.65488 c 0.983487,0 1.780871,-0.797383 1.780871,-1.780867 0,-0.983483 -0.796938,-1.780867 -1.780871,-1.780867 -0.983484,0 -1.780867,0.797384 -1.780867,1.780867 0,0.983484 0.796937,1.780867 1.780867,1.780867 z m -7.303788,1.246609 c 0,-0.121293 0.02187,-0.23663 0.03582,-0.354171 -0.24284,-0.133337 -0.50997,-0.180088 -0.792685,-0.180088 h -1.376166 c -1.082767,0 -1.960736,0.930502 -1.960736,2.076938 0,0.229286 0.175571,0.416279 0.392235,0.416279 h 4.441043 C 64.827957,77.330639 64.543017,76.651681 64.543017,75.901489 Z M 63.29863,74.65488 c 0.983485,0 1.780869,-0.797383 1.780869,-1.780867 0,-0.983483 -0.796939,-1.780867 -1.780869,-1.780867 -0.983486,0 -1.780869,0.797384 -1.780869,1.780867 0,0.983484 0.797383,1.780867 1.780869,1.780867 z m 9.436381,0.712353 h -1.376612 c -0.28494,0 -0.553851,0.06761 -0.798276,0.183428 0.01338,0.117091 0.03562,0.230623 0.03562,0.350828 0,0.750417 -0.284493,1.429372 -0.738169,1.958961 h 4.445495 c 0.217264,0 0.393126,-0.186996 0.393126,-0.416279 0,-1.146439 -0.877078,-2.076938 -1.961181,-2.076938 z"
       id="path2-7-3"
       style="fill:#ffffff;fill-opacity:1;stroke-width:0.0222609" />
    <path
       d="m 95.173031,90.55111 c 1.277998,0 2.295098,-1.036469 2.295098,-2.315133 0,-1.278664 -1.03602,-2.315129 -2.295098,-2.315129 -1.277997,0 -2.295093,1.036465 -2.295093,2.315129 -0.02003,1.277775 1.017318,2.315133 2.295093,2.315133 z m 1.113048,0.712346 h -2.221638 c -1.747479,0 -3.163269,1.328974 -3.163269,2.967375 0,0.32946 0.282711,0.594363 0.632206,0.594363 h 7.283761 c 0.34949,0 0.63221,-0.264903 0.63221,-0.594363 0,-1.638401 -1.4158,-2.967375 -3.16327,-2.967375 z m 3.16327,-4.274087 c 0.983481,0 1.780861,-0.797385 1.780861,-1.780868 0,-0.983487 -0.79694,-1.78087 -1.780861,-1.78087 -0.98349,0 -1.78088,0.797383 -1.78088,1.78087 0,0.983483 0.79695,1.780868 1.78088,1.780868 z m -7.303798,1.246608 c 0,-0.121293 0.02187,-0.236631 0.03582,-0.35417 -0.242846,-0.133351 -0.509976,-0.18009 -0.79269,-0.18009 h -1.376165 c -1.082768,0 -1.960738,0.930503 -1.960738,2.076939 0,0.229287 0.175571,0.416278 0.392236,0.416278 h 4.441044 c -0.454569,-0.529807 -0.739509,-1.208764 -0.73951,-1.958957 z m -1.244379,-1.246608 c 0.983484,0 1.780867,-0.797385 1.780867,-1.780868 0,-0.983487 -0.796938,-1.78087 -1.780867,-1.78087 -0.983488,0 -1.780871,0.797383 -1.780871,1.78087 0,0.983483 0.797383,1.780868 1.780871,1.780868 z m 9.436378,0.712348 h -1.376611 c -0.28494,0 -0.55385,0.06761 -0.79827,0.183428 0.0134,0.117092 0.0356,0.230623 0.0356,0.350832 0,0.750414 -0.2845,1.429372 -0.73817,1.958957 h 4.445491 c 0.21727,0 0.39313,-0.186991 0.39313,-0.416278 0,-1.146436 -0.87708,-2.076939 -1.96118,-2.076939 z"
       id="path2-7-4"
       style="fill:#ffffff;fill-opacity:1;stroke-width:0.0222609" />
    <path
       d="m 39.967969,90.55111 c 1.277995,0 2.295095,-1.036469 2.295095,-2.315133 0,-1.278664 -1.036022,-2.315129 -2.295095,-2.315129 -1.277997,0 -2.295096,1.036465 -2.295096,2.315129 -0.02003,1.277775 1.017321,2.315133 2.295096,2.315133 z m 1.113042,0.712346 h -2.221634 c -1.747478,0 -3.16327,1.328974 -3.16327,2.967375 0,0.32946 0.282712,0.594363 0.632209,0.594363 h 7.283756 c 0.349495,0 0.632209,-0.264903 0.632209,-0.594363 0,-1.638401 -1.41579,-2.967375 -3.16327,-2.967375 z m 3.16327,-4.274087 c 0.983483,0 1.780868,-0.797385 1.780868,-1.780868 0,-0.983487 -0.796938,-1.78087 -1.780868,-1.78087 -0.983487,0 -1.78087,0.797383 -1.78087,1.78087 0,0.983483 0.79694,1.780868 1.78087,1.780868 z m -7.303792,1.246608 c 0,-0.121293 0.02187,-0.236631 0.03582,-0.35417 -0.242843,-0.133351 -0.509973,-0.18009 -0.792686,-0.18009 h -1.376168 c -1.082768,0 -1.960737,0.930503 -1.960737,2.076939 0,0.229287 0.175572,0.416278 0.392237,0.416278 h 4.441043 C 37.225434,89.665127 36.940494,88.98617 36.940494,88.235977 Z m -1.244382,-1.246608 c 0.983485,0 1.780869,-0.797385 1.780869,-1.780868 0,-0.983487 -0.796938,-1.78087 -1.780869,-1.78087 -0.983485,0 -1.78087,0.797383 -1.78087,1.78087 0,0.983483 0.797385,1.780868 1.78087,1.780868 z m 9.436382,0.712348 h -1.376611 c -0.28494,0 -0.553851,0.06761 -0.798274,0.183428 0.01338,0.117092 0.03561,0.230623 0.03561,0.350832 0,0.750414 -0.284494,1.429372 -0.738168,1.958957 h 4.445495 c 0.217266,0 0.393124,-0.186991 0.393124,-0.416278 0,-1.146436 -0.877077,-2.076939 -1.96118,-2.076939 z"
       id="path2-7-7"
       style="fill:#ffffff;fill-opacity:1;stroke-width:0.0222609" />
    <path
       d="m 177.98062,78.216621 c 1.278,0 2.2951,-1.036468 2.2951,-2.315132 0,-1.278665 -1.03602,-2.31513 -2.2951,-2.31513 -1.278,0 -2.29509,1.036465 -2.29509,2.31513 -0.02,1.277779 1.01732,2.315132 2.29509,2.315132 z m 1.11304,0.712347 h -2.22163 c -1.74748,0 -3.16327,1.328974 -3.16327,2.967375 0,0.329459 0.28271,0.594364 0.63221,0.594364 h 7.28375 c 0.3495,0 0.63221,-0.264901 0.63221,-0.594364 0,-1.638401 -1.41579,-2.967375 -3.16327,-2.967375 z m 3.16327,-4.274088 c 0.98349,0 1.78087,-0.797383 1.78087,-1.780867 0,-0.983483 -0.79694,-1.780867 -1.78087,-1.780867 -0.98348,0 -1.78086,0.797384 -1.78086,1.780867 0,0.983484 0.79693,1.780867 1.78086,1.780867 z m -7.30378,1.246609 c 0,-0.121293 0.0219,-0.23663 0.0358,-0.354171 -0.24285,-0.133337 -0.50998,-0.180088 -0.79269,-0.180088 h -1.37617 c -1.08276,0 -1.96073,0.930502 -1.96073,2.076938 0,0.229286 0.17557,0.416279 0.39223,0.416279 h 4.44105 c -0.45457,-0.529808 -0.73951,-1.208766 -0.73951,-1.958958 z m -1.24439,-1.246609 c 0.98349,0 1.78087,-0.797383 1.78087,-1.780867 0,-0.983483 -0.79694,-1.780867 -1.78087,-1.780867 -0.98348,0 -1.78087,0.797384 -1.78087,1.780867 0,0.983484 0.79739,1.780867 1.78087,1.780867 z m 9.43638,0.712353 h -1.37661 c -0.28494,0 -0.55385,0.06761 -0.79827,0.183428 0.0134,0.117091 0.0356,0.230623 0.0356,0.350828 0,0.750417 -0.2845,1.429372 -0.73817,1.958961 h 4.44549 c 0.21727,0 0.39313,-0.186996 0.39313,-0.416279 0,-1.146439 -0.87708,-2.076938 -1.96119,-2.076938 z"
       id="path2-7-8-9"
       style="fill:#ffffff;fill-opacity:1;stroke-width:0.0222609" />
    <path
       d="m 233.18568,80.516431 c 1.278,0 2.2951,-1.036468 2.2951,-2.315132 0,-1.278665 -1.03602,-2.31513 -2.2951,-2.31513 -1.278,0 -2.29509,1.036465 -2.29509,2.31513 -0.02,1.277779 1.01732,2.315132 2.29509,2.315132 z m 1.11304,0.712347 h -2.22163 c -1.74748,0 -3.16327,1.328974 -3.16327,2.967375 0,0.329459 0.28271,0.594364 0.63221,0.594364 h 7.28375 c 0.3495,0 0.63221,-0.264901 0.63221,-0.594364 0,-1.638401 -1.41579,-2.967375 -3.16327,-2.967375 z m 3.16327,-4.274088 c 0.98349,0 1.78087,-0.797383 1.78087,-1.780867 0,-0.983483 -0.79694,-1.780867 -1.78087,-1.780867 -0.98348,0 -1.78086,0.797384 -1.78086,1.780867 0,0.983484 0.79693,1.780867 1.78086,1.780867 z m -7.30378,1.246609 c 0,-0.121293 0.0219,-0.23663 0.0358,-0.354171 -0.24285,-0.133337 -0.50998,-0.180088 -0.79269,-0.180088 h -1.37617 c -1.08276,0 -1.96073,0.930502 -1.96073,2.076938 0,0.229286 0.17557,0.416279 0.39223,0.416279 h 4.44105 c -0.45457,-0.529808 -0.73951,-1.208766 -0.73951,-1.958958 z m -1.24439,-1.246609 c 0.98349,0 1.78087,-0.797383 1.78087,-1.780867 0,-0.983483 -0.79694,-1.780867 -1.78087,-1.780867 -0.98348,0 -1.78087,0.797384 -1.78087,1.780867 0,0.983484 0.79739,1.780867 1.78087,1.780867 z m 9.43638,0.712353 h -1.37661 c -0.28494,0 -0.55385,0.06761 -0.79827,0.183428 0.0134,0.117091 0.0356,0.230623 0.0356,0.350828 0,0.750417 -0.2845,1.429372 -0.73817,1.958961 h 4.44549 c 0.21727,0 0.39313,-0.186996 0.39313,-0.416279 0,-1.146439 -0.87708,-2.076938 -1.96119,-2.076938 z"
       id="path2-7-8-9-5"
       style="fill:#ffffff;fill-opacity:1;stroke-width:0.0222609" />
    <path
       d="m 205.58317,92.85092 c 1.27799,0 2.29509,-1.036469 2.29509,-2.315133 0,-1.278664 -1.03602,-2.315129 -2.29509,-2.315129 -1.278,0 -2.2951,1.036465 -2.2951,2.315129 -0.02,1.277775 1.01732,2.315133 2.2951,2.315133 z m 1.11304,0.712346 h -2.22163 c -1.74748,0 -3.16327,1.32897 -3.16327,2.96737 0,0.32946 0.28271,0.59437 0.6322,0.59437 h 7.28376 c 0.34949,0 0.63221,-0.26491 0.63221,-0.59437 0,-1.6384 -1.41579,-2.96737 -3.16327,-2.96737 z m 3.16327,-4.274087 c 0.98348,0 1.78087,-0.797385 1.78087,-1.780868 0,-0.983487 -0.79694,-1.78087 -1.78087,-1.78087 -0.98349,0 -1.78087,0.797383 -1.78087,1.78087 0,0.983483 0.79694,1.780868 1.78087,1.780868 z m -7.30379,1.246608 c 0,-0.121293 0.0219,-0.236631 0.0358,-0.35417 -0.24285,-0.133351 -0.50998,-0.18009 -0.79269,-0.18009 h -1.37617 c -1.08277,0 -1.96074,0.930503 -1.96074,2.076939 0,0.229287 0.17557,0.416278 0.39224,0.416278 h 4.44104 c -0.45456,-0.529807 -0.7395,-1.208764 -0.7395,-1.958957 z m -1.24438,-1.246608 c 0.98348,0 1.78086,-0.797385 1.78086,-1.780868 0,-0.983487 -0.79693,-1.78087 -1.78086,-1.78087 -0.98349,0 -1.78087,0.797383 -1.78087,1.78087 0,0.983483 0.79738,1.780868 1.78087,1.780868 z m 9.43638,0.712348 h -1.37662 c -0.28494,0 -0.55385,0.06761 -0.79827,0.183428 0.0134,0.117092 0.0356,0.230623 0.0356,0.350832 0,0.750414 -0.28449,1.429372 -0.73817,1.958957 h 4.4455 c 0.21726,0 0.39312,-0.186991 0.39312,-0.416278 0,-1.146436 -0.87708,-2.076939 -1.96118,-2.076939 z"
       id="path2-7-4-1-5"
       style="fill:#ffffff;fill-opacity:1;stroke-width:0.0222609" />
    <path
       d="m 288.39074,80.516431 c 1.278,0 2.2951,-1.036468 2.2951,-2.315132 0,-1.278665 -1.03602,-2.31513 -2.2951,-2.31513 -1.278,0 -2.29509,1.036465 -2.29509,2.31513 -0.02,1.277779 1.01732,2.315132 2.29509,2.315132 z m 1.11304,0.712347 h -2.22163 c -1.74748,0 -3.16327,1.328974 -3.16327,2.967375 0,0.329459 0.28271,0.594364 0.63221,0.594364 h 7.28375 c 0.3495,0 0.63221,-0.264901 0.63221,-0.594364 0,-1.638401 -1.41579,-2.967375 -3.16327,-2.967375 z m 3.16327,-4.274088 c 0.98349,0 1.78087,-0.797383 1.78087,-1.780867 0,-0.983483 -0.79694,-1.780867 -1.78087,-1.780867 -0.98348,0 -1.78086,0.797384 -1.78086,1.780867 0,0.983484 0.79693,1.780867 1.78086,1.780867 z m -7.30378,1.246609 c 0,-0.121293 0.0219,-0.23663 0.0358,-0.354171 -0.24285,-0.133337 -0.50998,-0.180088 -0.79269,-0.180088 h -1.37617 c -1.08276,0 -1.96073,0.930502 -1.96073,2.076938 0,0.229286 0.17557,0.416279 0.39223,0.416279 h 4.44105 c -0.45457,-0.529808 -0.73951,-1.208766 -0.73951,-1.958958 z m -1.24439,-1.246609 c 0.98349,0 1.78087,-0.797383 1.78087,-1.780867 0,-0.983483 -0.79694,-1.780867 -1.78087,-1.780867 -0.98348,0 -1.78087,0.797384 -1.78087,1.780867 0,0.983484 0.79739,1.780867 1.78087,1.780867 z m 9.43638,0.712353 h -1.37661 c -0.28494,0 -0.55385,0.06761 -0.79827,0.183428 0.0134,0.117091 0.0356,0.230623 0.0356,0.350828 0,0.750417 -0.2845,1.429372 -0.73817,1.958961 h 4.44549 c 0.21727,0 0.39313,-0.186996 0.39313,-0.416279 0,-1.146439 -0.87708,-2.076938 -1.96119,-2.076938 z"
       id="path2-7-8-9-8"
       style="fill:#ffffff;fill-opacity:1;stroke-width:0.0222609" />
    <path
       d="m 260.78823,93.251824 c 1.27799,0 2.29509,-1.036469 2.29509,-2.315133 0,-1.278664 -1.03602,-2.315129 -2.29509,-2.315129 -1.278,0 -2.2951,1.036465 -2.2951,2.315129 -0.02,1.277775 1.01732,2.315133 2.2951,2.315133 z m 1.11304,0.712346 h -2.22163 c -1.74748,0 -3.16327,1.328974 -3.16327,2.967375 0,0.32946 0.28271,0.594363 0.6322,0.594363 h 7.28376 c 0.34949,0 0.63221,-0.264903 0.63221,-0.594363 0,-1.638401 -1.41579,-2.967375 -3.16327,-2.967375 z m 3.16327,-4.274087 c 0.98348,0 1.78087,-0.797385 1.78087,-1.780868 0,-0.983487 -0.79694,-1.78087 -1.78087,-1.78087 -0.98349,0 -1.78087,0.797383 -1.78087,1.78087 0,0.983483 0.79694,1.780868 1.78087,1.780868 z m -7.30379,1.246608 c 0,-0.121293 0.0219,-0.236631 0.0358,-0.35417 -0.24285,-0.133351 -0.50998,-0.18009 -0.79269,-0.18009 h -1.37617 c -1.08277,0 -1.96074,0.930503 -1.96074,2.076939 0,0.229287 0.17557,0.416278 0.39224,0.416278 h 4.44104 c -0.45456,-0.529807 -0.7395,-1.208764 -0.7395,-1.958957 z m -1.24438,-1.246608 c 0.98348,0 1.78086,-0.797385 1.78086,-1.780868 0,-0.983487 -0.79693,-1.78087 -1.78086,-1.78087 -0.98349,0 -1.78087,0.797383 -1.78087,1.78087 0,0.983483 0.79738,1.780868 1.78087,1.780868 z m 9.43638,0.712348 h -1.37662 c -0.28494,0 -0.55385,0.06761 -0.79827,0.183428 0.0134,0.117092 0.0356,0.230623 0.0356,0.350832 0,0.750414 -0.28449,1.429372 -0.73817,1.958957 h 4.4455 c 0.21726,0 0.39312,-0.186991 0.39312,-0.416278 0,-1.146436 -0.87708,-2.076939 -1.96118,-2.076939 z"
       id="path2-7-4-1-9"
       style="fill:#ffffff;fill-opacity:1;stroke-width:0.0222609" />
    <path
       style="fill:none;stroke:#ffffff;stroke-width:1.13314;stroke-linecap:butt;stroke-linejoin:bevel;stroke-miterlimit:4;stroke-dasharray:none;stroke-opacity:1;marker-end:url(#marker3643)"
       d="m 150.38031,18.974402 c 0,12.868925 0,12.868925 0,12.868925"
       id="path2773-9" />
    <path
       style="fill:none;stroke:#ffffff;stroke-width:1.33508;stroke-linecap:butt;stroke-linejoin:bevel;stroke-miterlimit:4;stroke-dasharray:none;stroke-opacity:1;marker-end:url(#marker3825)"
       d="M 150.38031,18.974402 62.724358,45.305799"
       id="path2773-04"
       sodipodi:nodetypes="cc" />
    <path
       d="m 49.73508,48.536048 c 0.469401,0.276499 0.678381,0.903438 0.372948,1.398557 -0.24756,0.469403 -0.8745,0.678381 -1.369621,0.37295 l -8.790014,-4.838365 -8.730859,4.838365 c -0.496729,0.305431 -1.123025,0.09646 -1.39904,-0.37295 -0.27595,-0.495119 -0.097,-1.122058 0.399796,-1.398557 l 9.260701,-5.14325 c 0.308647,-0.17262 0.688025,-0.17262 0.996673,0 z m -11.072719,1.157429 c 0,-0.710534 0.604435,-1.28603 1.286032,-1.28603 0.739465,0 1.286029,0.575496 1.286029,1.28603 0,0.710531 -0.546564,1.286028 -1.286029,1.286028 -0.681597,0 -1.286032,-0.575497 -1.286032,-1.286028 z m -5.658531,3.08647 c 0,-0.710531 0.604434,-1.286028 1.286031,-1.286028 0.739466,0 1.286028,0.575497 1.286028,1.286028 0,0.710534 -0.546562,1.28603 -1.286028,1.28603 -0.681597,0 -1.286031,-0.575496 -1.286031,-1.28603 z m 13.889124,0 c 0,0.710534 -0.546563,1.28603 -1.28603,1.28603 -0.681596,0 -1.28603,-0.575496 -1.28603,-1.28603 0,-0.710531 0.604434,-1.286028 1.28603,-1.286028 0.739467,0 1.28603,0.575497 1.28603,1.286028 z m -9.908861,6.282255 -0.89379,-1.604321 v 1.237805 c 0,0.569069 -0.430821,1.028823 -1.028824,1.028823 h -1.543236 c -0.540134,0 -1.028826,-0.459754 -1.028826,-1.028823 v -1.237805 l -0.834954,1.604321 c -0.202228,0.37295 -0.670021,0.514415 -1.045221,0.311864 -0.375199,-0.202549 -0.515698,-0.668733 -0.31347,-1.044898 l 1.21755,-2.260199 c 0.493513,-0.916296 1.451927,-1.488577 2.490397,-1.488577 h 0.630154 c 0.524057,0 1.025609,0.144677 1.459644,0.405096 l 1.077051,-2.002991 c 0.495121,-0.916296 1.453212,-1.517516 2.491682,-1.517516 h 0.630156 c 1.038468,0 1.99656,0.60122 2.491683,1.517516 l 1.07705,2.002991 c 0.434034,-0.260419 0.935586,-0.405096 1.459643,-0.405096 h 0.630155 c 1.038469,0 1.996561,0.572281 2.491683,1.488577 l 1.215298,2.260199 c 0.20255,0.376165 0.06109,0.842349 -0.311862,1.044898 -0.376164,0.202551 -0.842349,0.06109 -1.044898,-0.311864 l -0.893792,-1.604321 v 1.237805 c 0,0.569069 -0.430821,1.028823 -1.028824,1.028823 h -1.543236 c -0.540133,0 -1.028823,-0.459754 -1.028823,-1.028823 v -1.237805 l -0.83592,1.604321 c -0.202551,0.37295 -0.668737,0.514415 -1.0449,0.311864 -0.401884,-0.202549 -0.514412,-0.668733 -0.311863,-1.044898 l 1.167073,-2.170176 c -0.05465,-0.05144 -0.102879,-0.112528 -0.138249,-0.183262 l -0.89379,-1.604322 v 1.752218 c 0,0.569069 -0.430821,1.028823 -1.028824,1.028823 h -1.543235 c -0.540133,0 -1.028826,-0.459754 -1.028826,-1.028823 V 54.371408 L 37.31203,55.97573 c -0.0643,0.07074 -0.0836,0.131825 -0.138248,0.183262 l 1.167072,2.170176 c 0.202549,0.376165 0.06109,0.842349 -0.311863,1.044898 -0.376162,0.202551 -0.842349,0.06109 -1.044898,-0.311864 z"
       id="path2"
       style="fill:#ffffff;fill-opacity:1;stroke-width:0.0321507" />
    <path
       d="m 104.94014,48.536048 c 0.4694,0.276499 0.67838,0.903438 0.37295,1.398557 -0.24756,0.469403 -0.8745,0.678381 -1.36963,0.37295 l -8.790009,-4.838365 -8.730859,4.838365 c -0.496729,0.305431 -1.123025,0.09646 -1.39904,-0.37295 -0.27595,-0.495119 -0.097,-1.122058 0.399796,-1.398557 l 9.260701,-5.14325 c 0.308647,-0.17262 0.688025,-0.17262 0.996673,0 z m -11.072721,1.157429 c 0,-0.710534 0.604435,-1.28603 1.286032,-1.28603 0.739465,0 1.286029,0.575496 1.286029,1.28603 0,0.710531 -0.546564,1.286028 -1.286029,1.286028 -0.681597,0 -1.286032,-0.575497 -1.286032,-1.286028 z m -5.658531,3.08647 c 0,-0.710531 0.604434,-1.286028 1.286031,-1.286028 0.739466,0 1.286028,0.575497 1.286028,1.286028 0,0.710534 -0.546562,1.28603 -1.286028,1.28603 -0.681597,0 -1.286031,-0.575496 -1.286031,-1.28603 z m 13.889122,0 c 0,0.710534 -0.54656,1.28603 -1.28603,1.28603 -0.68159,0 -1.286028,-0.575496 -1.286028,-1.28603 0,-0.710531 0.604438,-1.286028 1.286028,-1.286028 0.73947,0 1.28603,0.575497 1.28603,1.286028 z m -9.908859,6.282255 -0.89379,-1.604321 v 1.237805 c 0,0.569069 -0.430821,1.028823 -1.028824,1.028823 h -1.543236 c -0.540134,0 -1.028826,-0.459754 -1.028826,-1.028823 v -1.237805 l -0.834954,1.604321 c -0.202228,0.37295 -0.670021,0.514415 -1.045221,0.311864 -0.375199,-0.202549 -0.515698,-0.668733 -0.31347,-1.044898 l 1.21755,-2.260199 c 0.493513,-0.916296 1.451927,-1.488577 2.490397,-1.488577 h 0.630154 c 0.524057,0 1.025609,0.144677 1.459644,0.405096 l 1.077051,-2.002991 c 0.495121,-0.916296 1.453212,-1.517516 2.491682,-1.517516 h 0.630156 c 1.038468,0 1.99656,0.60122 2.491683,1.517516 l 1.07705,2.002991 c 0.434034,-0.260419 0.935583,-0.405096 1.459643,-0.405096 h 0.63015 c 1.03847,0 1.99657,0.572281 2.49169,1.488577 l 1.2153,2.260199 c 0.20255,0.376165 0.0611,0.842349 -0.31187,1.044898 -0.37616,0.202551 -0.84235,0.06109 -1.04489,-0.311864 l -0.8938,-1.604321 v 1.237805 c 0,0.569069 -0.43082,1.028823 -1.02882,1.028823 h -1.54324 c -0.540129,0 -1.028819,-0.459754 -1.028819,-1.028823 v -1.237805 l -0.83592,1.604321 c -0.202551,0.37295 -0.668737,0.514415 -1.0449,0.311864 -0.401884,-0.202549 -0.514412,-0.668733 -0.311863,-1.044898 l 1.167073,-2.170176 c -0.05465,-0.05144 -0.102879,-0.112528 -0.138249,-0.183262 l -0.89379,-1.604322 v 1.752218 c 0,0.569069 -0.430821,1.028823 -1.028824,1.028823 h -1.543235 c -0.540133,0 -1.028826,-0.459754 -1.028826,-1.028823 v -1.752218 l -0.835919,1.604322 c -0.0643,0.07074 -0.0836,0.131825 -0.138248,0.183262 l 1.167072,2.170176 c 0.202549,0.376165 0.06109,0.842349 -0.311863,1.044898 -0.376162,0.202551 -0.842349,0.06109 -1.044898,-0.311864 z"
       id="path2-74"
       style="fill:#ffffff;fill-opacity:1;stroke-width:0.0321507" />
    <path
       d="m 270.55532,48.536048 c 0.4694,0.276499 0.67838,0.903438 0.37295,1.398557 -0.24756,0.469403 -0.8745,0.678381 -1.36962,0.37295 l -8.79002,-4.838365 -8.73086,4.838365 c -0.49672,0.305431 -1.12302,0.09646 -1.39904,-0.37295 -0.27595,-0.495119 -0.097,-1.122058 0.3998,-1.398557 l 9.2607,-5.14325 c 0.30865,-0.17262 0.68803,-0.17262 0.99668,0 z m -11.07272,1.157429 c 0,-0.710534 0.60444,-1.28603 1.28603,-1.28603 0.73947,0 1.28603,0.575496 1.28603,1.28603 0,0.710531 -0.54656,1.286028 -1.28603,1.286028 -0.68159,0 -1.28603,-0.575497 -1.28603,-1.286028 z m -5.65853,3.08647 c 0,-0.710531 0.60443,-1.286028 1.28603,-1.286028 0.73947,0 1.28603,0.575497 1.28603,1.286028 0,0.710534 -0.54656,1.28603 -1.28603,1.28603 -0.6816,0 -1.28603,-0.575496 -1.28603,-1.28603 z m 13.88912,0 c 0,0.710534 -0.54656,1.28603 -1.28602,1.28603 -0.6816,0 -1.28604,-0.575496 -1.28604,-1.28603 0,-0.710531 0.60444,-1.286028 1.28604,-1.286028 0.73946,0 1.28602,0.575497 1.28602,1.286028 z m -9.90886,6.282255 -0.89379,-1.604321 v 1.237805 c 0,0.569069 -0.43082,1.028823 -1.02882,1.028823 h -1.54324 c -0.54013,0 -1.02882,-0.459754 -1.02882,-1.028823 v -1.237805 l -0.83496,1.604321 c -0.20222,0.37295 -0.67002,0.514415 -1.04522,0.311864 -0.3752,-0.202549 -0.5157,-0.668733 -0.31347,-1.044898 l 1.21755,-2.260199 c 0.49352,-0.916296 1.45193,-1.488577 2.4904,-1.488577 h 0.63015 c 0.52406,0 1.02561,0.144677 1.45965,0.405096 l 1.07705,-2.002991 c 0.49512,-0.916296 1.45321,-1.517516 2.49168,-1.517516 h 0.63016 c 1.03847,0 1.99656,0.60122 2.49168,1.517516 l 1.07705,2.002991 c 0.43403,-0.260419 0.93559,-0.405096 1.45964,-0.405096 h 0.63016 c 1.03847,0 1.99656,0.572281 2.49168,1.488577 l 1.2153,2.260199 c 0.20255,0.376165 0.0611,0.842349 -0.31186,1.044898 -0.37617,0.202551 -0.84235,0.06109 -1.0449,-0.311864 l -0.89379,-1.604321 v 1.237805 c 0,0.569069 -0.43082,1.028823 -1.02883,1.028823 h -1.54323 c -0.54014,0 -1.02883,-0.459754 -1.02883,-1.028823 v -1.237805 l -0.83592,1.604321 c -0.20255,0.37295 -0.66873,0.514415 -1.0449,0.311864 -0.40188,-0.202549 -0.51441,-0.668733 -0.31186,-1.044898 l 1.16707,-2.170176 c -0.0546,-0.05144 -0.10288,-0.112528 -0.13825,-0.183262 l -0.89379,-1.604322 v 1.752218 c 0,0.569069 -0.43082,1.028823 -1.02882,1.028823 h -1.54323 c -0.54014,0 -1.02883,-0.459754 -1.02883,-1.028823 v -1.752218 l -0.83592,1.604322 c -0.0643,0.07074 -0.0836,0.131825 -0.13825,0.183262 l 1.16707,2.170176 c 0.20255,0.376165 0.0611,0.842349 -0.31186,1.044898 -0.37616,0.202551 -0.84235,0.06109 -1.0449,-0.311864 z"
       id="path2-18"
       style="fill:#ffffff;fill-opacity:1;stroke-width:0.0321507" />
    <path
       d="m 215.35026,48.536048 c 0.4694,0.276499 0.67838,0.903438 0.37295,1.398557 -0.24756,0.469403 -0.8745,0.678381 -1.36962,0.37295 l -8.79002,-4.838365 -8.73086,4.838365 c -0.49672,0.305431 -1.12302,0.09646 -1.39904,-0.37295 -0.27595,-0.495119 -0.097,-1.122058 0.3998,-1.398557 l 9.2607,-5.14325 c 0.30865,-0.17262 0.68803,-0.17262 0.99667,0 z m -11.07272,1.157429 c 0,-0.710534 0.60444,-1.28603 1.28603,-1.28603 0.73947,0 1.28603,0.575496 1.28603,1.28603 0,0.710531 -0.54656,1.286028 -1.28603,1.286028 -0.68159,0 -1.28603,-0.575497 -1.28603,-1.286028 z m -5.65853,3.08647 c 0,-0.710531 0.60443,-1.286028 1.28603,-1.286028 0.73947,0 1.28603,0.575497 1.28603,1.286028 0,0.710534 -0.54656,1.28603 -1.28603,1.28603 -0.6816,0 -1.28603,-0.575496 -1.28603,-1.28603 z m 13.88912,0 c 0,0.710534 -0.54656,1.28603 -1.28603,1.28603 -0.68159,0 -1.28603,-0.575496 -1.28603,-1.28603 0,-0.710531 0.60444,-1.286028 1.28603,-1.286028 0.73947,0 1.28603,0.575497 1.28603,1.286028 z m -9.90886,6.282255 -0.89379,-1.604321 v 1.237805 c 0,0.569069 -0.43082,1.028823 -1.02882,1.028823 h -1.54324 c -0.54013,0 -1.02882,-0.459754 -1.02882,-1.028823 v -1.237805 l -0.83496,1.604321 c -0.20222,0.37295 -0.67002,0.514415 -1.04522,0.311864 -0.3752,-0.202549 -0.5157,-0.668733 -0.31347,-1.044898 l 1.21755,-2.260199 c 0.49352,-0.916296 1.45193,-1.488577 2.4904,-1.488577 h 0.63015 c 0.52406,0 1.02561,0.144677 1.45965,0.405096 l 1.07705,-2.002991 c 0.49512,-0.916296 1.45321,-1.517516 2.49168,-1.517516 h 0.63016 c 1.03846,0 1.99656,0.60122 2.49168,1.517516 l 1.07705,2.002991 c 0.43403,-0.260419 0.93559,-0.405096 1.45964,-0.405096 h 0.63016 c 1.03847,0 1.99656,0.572281 2.49168,1.488577 l 1.2153,2.260199 c 0.20255,0.376165 0.0611,0.842349 -0.31186,1.044898 -0.37617,0.202551 -0.84235,0.06109 -1.0449,-0.311864 l -0.89379,-1.604321 v 1.237805 c 0,0.569069 -0.43082,1.028823 -1.02883,1.028823 h -1.54323 c -0.54014,0 -1.02883,-0.459754 -1.02883,-1.028823 v -1.237805 l -0.83592,1.604321 c -0.20255,0.37295 -0.66873,0.514415 -1.0449,0.311864 -0.40188,-0.202549 -0.51441,-0.668733 -0.31186,-1.044898 l 1.16707,-2.170176 c -0.0547,-0.05144 -0.10288,-0.112528 -0.13825,-0.183262 l -0.89379,-1.604322 v 1.752218 c 0,0.569069 -0.43082,1.028823 -1.02882,1.028823 h -1.54323 c -0.54014,0 -1.02883,-0.459754 -1.02883,-1.028823 v -1.752218 l -0.83592,1.604322 c -0.0643,0.07074 -0.0836,0.131825 -0.13825,0.183262 l 1.16707,2.170176 c 0.20255,0.376165 0.0611,0.842349 -0.31186,1.044898 -0.37616,0.202551 -0.84235,0.06109 -1.0449,-0.311864 z"
       id="path2-03"
       style="fill:#ffffff;fill-opacity:1;stroke-width:0.0321507" />
    <path
       style="fill:none;stroke:#ffffff;stroke-width:1.39078;stroke-linecap:butt;stroke-linejoin:bevel;stroke-miterlimit:4;stroke-dasharray:none;stroke-opacity:1;marker-end:url(#marker3643-7)"
       d="M 150.38031,18.974402 113.21594,47.581537"
       id="path2773-9-5"
       sodipodi:nodetypes="cc" />
    <text
       xml:space="preserve"
       style="font-size:9.30343px;line-height:1.25;font-family:sans-serif;stroke-width:0.634323;fill:#ffffff;fill-opacity:1;"
       x="134.09003"
       y="11.465476"
       id="text10754"><tspan
         sodipodi:role="line"
         id="tspan10752"
         x="134.09003"
         y="11.465476"
         style="font-style:normal;font-variant:normal;font-weight:normal;font-stretch:normal;font-family:Montserrat;-inkscape-font-specification:Montserrat;stroke-width:0.634323;fill:#ffffff;fill-opacity:1;">Solutio</tspan></text>
    <text
       xml:space="preserve"
       style="font-size:9.30343px;line-height:1.25;font-family:sans-serif;fill:#ffffff;fill-opacity:1;stroke-width:0.634323"
       x="136.72754"
       y="44.923878"
       id="text10754-1"><tspan
         sodipodi:role="line"
         id="tspan10752-5"
         x="136.72754"
         y="44.923878"
         style="font-style:normal;font-variant:normal;font-weight:normal;font-stretch:normal;font-family:Montserrat;-inkscape-font-specification:Montserrat;fill:#ffffff;fill-opacity:1;stroke-width:0.634323">Tribes</tspan></text>
    <text
       xml:space="preserve"
       style="font-size:9.30343px;line-height:1.25;font-family:sans-serif;stroke-width:0.634323;fill:#ffffff;fill-opacity:1;"
       x="126.07978"
       y="93.816582"
       id="text10754-4"><tspan
         sodipodi:role="line"
         id="tspan10752-7"
         x="126.07978"
         y="93.816582"
         style="font-style:normal;font-variant:normal;font-weight:normal;font-stretch:normal;font-family:Montserrat;-inkscape-font-specification:Montserrat;stroke-width:0.634323;fill:#ffffff;fill-opacity:1;">Studenten</tspan></text>
    <path
       style="fill:none;stroke:#ffffff;stroke-width:1.33508;stroke-linecap:butt;stroke-linejoin:bevel;stroke-miterlimit:4;stroke-dasharray:none;stroke-opacity:1;marker-end:url(#marker13891)"
       d="m 150.38031,18.974402 87.65595,26.331397"
       id="path13875"
       sodipodi:nodetypes="cc" />
    <path
       style="fill:none;stroke:#ffffff;stroke-width:1.39078;stroke-linecap:butt;stroke-linejoin:bevel;stroke-miterlimit:4;stroke-dasharray:none;stroke-opacity:1;marker-end:url(#marker13881)"
       d="m 150.38031,18.974402 37.16437,28.607135"
       id="path13877"
       sodipodi:nodetypes="cc" />
  </g>
</svg>
